<svg viewBox="0 0 1300 1300" xmlns="http://www.w3.org/2000/svg"><g transform="translate(650, 650)"><g class="categories"><g class="category " data-category="Direct Care Solutions"><path d="M28.911,-619.245A10,10,0,0,1,39.527,-628.759A630,630,0,0,1,505.281,-376.286A10,10,0,0,1,503.103,-362.198L497.421,-358.107A10,10,0,0,1,483.56,-360.249A603,603,0,0,0,37.944,-601.805A10,10,0,0,1,28.584,-612.252Z" fill="grey"></path><defs><path d="M-271.51,-557.299A10,10,0,0,1,-266.755,-570.738A630,630,0,0,1,623.827,-87.978A10,10,0,0,1,615.161,-76.658" id="category-path-0" fill="transparent"></path></defs><text dominant-baseline="hanging" dy="6"><textPath href="#category-path-0" startOffset="50%" text-anchor="middle">Direct Care Solutions</textPath></text></g><g class="category " data-category="Employee Engagement &amp; Culture"><path d="M534.142,-314.631A10,10,0,0,1,547.914,-310.951A630,630,0,0,1,591.433,217.041A10,10,0,0,1,578.449,222.927L571.917,220.409A10,10,0,0,1,566.124,207.635A603,603,0,0,0,524.487,-297.528A10,10,0,0,1,528.109,-311.078Z" fill="grey"></path><defs><path d="M317.911,-532.196A10,10,0,0,1,331.762,-535.569A630,630,0,0,1,414.977,474.019A10,10,0,0,1,400.76,472.96" id="category-path-1" fill="transparent"></path></defs><text dominant-baseline="hanging" dy="6"><textPath href="#category-path-1" startOffset="50%" text-anchor="middle">Employee Engagement &amp; Culture</textPath></text></g><g class="category " data-category="Financial Support &amp; Benefits"><path d="M555.618,274.933A10,10,0,0,1,560.073,288.475A630,630,0,0,1,-264.891,571.605A10,10,0,0,1,-269.69,558.182L-266.645,551.878A10,10,0,0,1,-253.438,547.155A603,603,0,0,0,536.019,276.211A10,10,0,0,1,549.343,271.829Z" fill="grey"></path><defs><path d="M-504.282,360.554A10,10,0,0,0,-506.506,374.636A630,630,0,0,0,629.813,-15.353A10,10,0,0,0,619.411,-25.101" id="category-path-2" fill="transparent"></path></defs><text dominant-baseline="hanging" dy="-21"><textPath href="#category-path-2" startOffset="50%" text-anchor="middle">Financial Support &amp; Benefits</textPath></text></g><g class="category " data-category="Flexible Work &amp; Leave Policies"><path d="M-319.646,531.156A10,10,0,0,1,-333.508,534.483A630,630,0,0,1,-504.97,376.704A10,10,0,0,1,-502.804,362.614L-497.125,358.518A10,10,0,0,1,-483.262,360.648A603,603,0,0,0,-319.309,511.518A10,10,0,0,1,-316.036,525.157Z" fill="grey"></path><defs><path d="M-615.098,77.166A10,10,0,0,0,-623.754,88.493A630,630,0,0,0,-36.436,628.945A10,10,0,0,0,-25.866,619.379" id="category-path-3" fill="transparent"></path></defs><text dominant-baseline="hanging" dy="-21"><textPath href="#category-path-3" startOffset="50%" text-anchor="middle">Flexible Work &amp; Leave Policies</textPath></text></g><g class="category " data-category="Learning &amp; Assessment"><path d="M-533.881,315.073A10,10,0,0,1,-547.657,311.403A630,630,0,0,1,-629.87,-12.777A10,10,0,0,1,-619.508,-22.567L-612.512,-22.313A10,10,0,0,1,-602.878,-12.118A603,603,0,0,0,-524.241,297.961A10,10,0,0,1,-527.852,311.514Z" fill="grey"></path><defs><path d="M-532.85,-316.813A10,10,0,0,0,-546.638,-313.189A630,630,0,0,0,-331.319,535.843A10,10,0,0,0,-317.471,532.459" id="category-path-4" fill="transparent"></path></defs><text dominant-baseline="hanging" dy="-21"><textPath href="#category-path-4" startOffset="50%" text-anchor="middle">Learning &amp; Assessment</textPath></text></g><g class="category " data-category="Policy, Advocacy, &amp; Systemic Change"><path d="M-614.843,-79.173A10,10,0,0,1,-623.462,-90.528A630,630,0,0,1,-39.527,-628.759A10,10,0,0,1,-28.911,-619.245L-28.584,-612.252A10,10,0,0,1,-37.944,-601.805A603,603,0,0,0,-596.726,-86.758A10,10,0,0,1,-607.899,-78.279Z" fill="grey"></path><defs><path d="M-577.533,225.29A10,10,0,0,1,-590.541,219.458A630,630,0,0,1,266.755,-570.738A10,10,0,0,1,271.51,-557.299" id="category-path-5" fill="transparent"></path></defs><text dominant-baseline="hanging" dy="6"><textPath href="#category-path-5" startOffset="50%" text-anchor="middle">Policy, Advocacy, &amp; Systemic Change</textPath></text></g></g><g class="petalGroups"> <g class="petalGroup"><g class="petal " data-category="Direct Care Solutions" data-solution="Financial support" fill="grey"><path d="M29.925,-554.905A15,15,0,0,1,46.12,-569.134A571,571,0,0,1,93.069,-563.364A15,15,0,0,1,105.336,-545.637L54.541,-290.381A15,15,0,0,1,37.811,-278.445A281,281,0,0,0,30.74,-279.314A15,15,0,0,1,17.399,-294.945Z" stroke="none"></path><path d="M26.752,-555.153A15,15,0,0,1,42.86,-569.389A571,571,0,0,1,96.293,-562.822A15,15,0,0,1,108.475,-545.109L57.696,-289.935A15,15,0,0,1,40.806,-278.021A281,281,0,0,0,27.731,-279.628A15,15,0,0,1,14.229,-295.277Z" opacity="0" stroke="red"></path><text text-anchor="middle" y="5" transform="rotate(-82.99323616851525) translate(426,0)" fill="black">Financial support</text><g class="detail-button-group " transform="rotate(-82.99323616851525) translate(301,0) rotate(82.99323616851525) "><image href="https://datacult.github.io/caseforchildcare-y2-solutions-viz/assets/illustrations/detail-button.svg" alt="Arrow right" height="30px" width="30px" transform="translate(-15,-15)"></image></g></g><g class="petal " data-category="Direct Care Solutions" data-solution="Pilots" fill="grey"><path d="M112.393,-544.227A15,15,0,0,1,130.529,-555.881A571,571,0,0,1,176.092,-543.169A15,15,0,0,1,185.576,-523.81L97.26,-278.991A15,15,0,0,1,78.937,-269.685A281,281,0,0,0,72.075,-271.599A15,15,0,0,1,61.215,-289.047Z" stroke="none"></path><path d="M109.292,-544.946A15,15,0,0,1,127.344,-556.619A571,571,0,0,1,179.199,-542.152A15,15,0,0,1,188.602,-522.82L100.314,-278.079A15,15,0,0,1,81.836,-268.82A281,281,0,0,0,69.147,-272.36A15,15,0,0,1,58.13,-289.848Z" opacity="0" stroke="red"></path><text text-anchor="middle" y="5" transform="rotate(-74.41156916756535) translate(426,0)" fill="black">Pilots</text><g class="detail-button-group " transform="rotate(-74.41156916756535) translate(301,0) rotate(74.41156916756535) "><image href="https://datacult.github.io/caseforchildcare-y2-solutions-viz/assets/illustrations/detail-button.svg" alt="Arrow right" height="30px" width="30px" transform="translate(-15,-15)"></image></g></g><g class="petal " data-category="Direct Care Solutions" data-solution="Back-up care" fill="grey"><path d="M192.344,-521.363A15,15,0,0,1,212.015,-530.18A571,571,0,0,1,255.172,-510.812A15,15,0,0,1,261.661,-490.254L137.802,-261.354A15,15,0,0,1,118.295,-254.887A281,281,0,0,0,111.796,-257.804A15,15,0,0,1,103.661,-276.677Z" stroke="none"></path><path d="M189.384,-522.537A15,15,0,0,1,208.976,-531.385A571,571,0,0,1,258.092,-509.342A15,15,0,0,1,264.505,-488.823L140.686,-259.997A15,15,0,0,1,121.032,-253.598A281,281,0,0,0,109.014,-258.992A15,15,0,0,1,100.73,-277.929Z" opacity="0" stroke="red"></path><text text-anchor="middle" y="5" transform="rotate(-65.82990216661544) translate(426,0)" fill="black">Back-up care</text><g class="detail-button-group " transform="rotate(-65.82990216661544) translate(301,0) rotate(65.82990216661544) "><image href="https://datacult.github.io/caseforchildcare-y2-solutions-viz/assets/illustrations/detail-button.svg" alt="Arrow right" height="30px" width="30px" transform="translate(-15,-15)"></image></g></g><g class="petal " data-category="Direct Care Solutions" data-solution="On-site childcare" fill="grey"><path d="M267.987,-486.825A15,15,0,0,1,288.755,-492.607A571,571,0,0,1,328.538,-467.016A15,15,0,0,1,331.887,-445.721L175.258,-237.866A15,15,0,0,1,155.004,-234.381A281,281,0,0,0,149.013,-238.235A15,15,0,0,1,143.786,-258.111Z" stroke="none"></path><path d="M265.236,-488.427A15,15,0,0,1,285.929,-494.252A571,571,0,0,1,331.206,-465.127A15,15,0,0,1,334.485,-443.882L177.907,-236.093A15,15,0,0,1,157.519,-232.699A281,281,0,0,0,146.44,-239.826A15,15,0,0,1,141.075,-259.786Z" opacity="0" stroke="red"></path><text text-anchor="middle" y="5" transform="rotate(-57.248235165665534) translate(426,0)" fill="black">On-site childcare</text><g class="detail-button-group " transform="rotate(-57.248235165665534) translate(301,0) rotate(57.248235165665534) "><image href="https://datacult.github.io/caseforchildcare-y2-solutions-viz/assets/illustrations/detail-button.svg" alt="Arrow right" height="30px" width="30px" transform="translate(-15,-15)"></image></g></g><g class="petal " data-category="Direct Care Solutions" data-solution="Paid parental leave" fill="grey"><path d="M337.631,-441.386A15,15,0,0,1,359.028,-444.004A571,571,0,0,1,394.547,-412.763A15,15,0,0,1,394.681,-391.207L208.79,-209.051A15,15,0,0,1,188.243,-208.628A281,281,0,0,0,182.894,-213.332A15,15,0,0,1,180.691,-233.765Z" stroke="none"></path><path d="M335.149,-443.38A15,15,0,0,1,356.48,-446.053A571,571,0,0,1,396.904,-410.498A15,15,0,0,1,396.976,-389L211.145,-206.903A15,15,0,0,1,190.479,-206.589A281,281,0,0,0,180.587,-215.289A15,15,0,0,1,178.261,-235.827Z" opacity="0" stroke="red"></path><text text-anchor="middle" y="5" transform="rotate(-48.66656816471562) translate(426,0)" fill="black">Paid parental leave</text><g class="detail-button-group " transform="rotate(-48.66656816471562) translate(301,0) rotate(48.66656816471561) "><image href="https://datacult.github.io/caseforchildcare-y2-solutions-viz/assets/illustrations/detail-button.svg" alt="Arrow right" height="30px" width="30px" transform="translate(-15,-15)"></image></g></g><g class="petal " data-category="Direct Care Solutions" data-solution="FFN care" fill="grey"><path d="M399.714,-386.063A15,15,0,0,1,421.262,-385.459A571,571,0,0,1,451.722,-349.268A15,15,0,0,1,448.637,-327.933L237.647,-175.555A15,15,0,0,1,217.267,-178.202A281,281,0,0,0,212.68,-183.653A15,15,0,0,1,213.55,-204.186Z" stroke="none"></path><path d="M397.558,-388.405A15,15,0,0,1,419.049,-387.865A571,571,0,0,1,453.714,-346.676A15,15,0,0,1,450.577,-325.409L239.655,-173.08A15,15,0,0,1,219.173,-175.853A281,281,0,0,0,210.69,-185.932A15,15,0,0,1,211.455,-206.586Z" opacity="0" stroke="red"></path><text text-anchor="middle" y="5" transform="rotate(-40.084901163765714) translate(426,0)" fill="black">FFN care</text><g class="detail-button-group " transform="rotate(-40.084901163765714) translate(301,0) rotate(40.08490116376572) "><image href="https://datacult.github.io/caseforchildcare-y2-solutions-viz/assets/illustrations/detail-button.svg" alt="Arrow right" height="30px" width="30px" transform="translate(-15,-15)"></image></g></g></g>  <g class="petalGroup"><g class="petal " data-category="Employee Engagement &amp; Culture" data-solution="Care culture" fill="grey"><path d="M480.843,-278.577A15,15,0,0,1,501.614,-272.808A571,571,0,0,1,522.474,-230.353A15,15,0,0,1,514.348,-210.386L272.898,-113.235A15,15,0,0,1,253.753,-120.707A281,281,0,0,0,250.612,-127.101A15,15,0,0,1,256.396,-146.821Z" stroke="none"></path><path d="M479.314,-281.37A15,15,0,0,1,500.044,-275.676A571,571,0,0,1,523.784,-227.358A15,15,0,0,1,515.623,-207.469L274.252,-110.349A15,15,0,0,1,255.038,-117.968A281,281,0,0,0,249.229,-129.792A15,15,0,0,1,254.939,-149.656Z" opacity="0" stroke="red"></path><text text-anchor="middle" y="5" transform="rotate(-26.166085418712576) translate(426,0)" fill="black">Care culture</text><g class="detail-button-group " transform="rotate(-26.166085418712576) translate(301,0) rotate(26.166085418712584) "><image href="https://datacult.github.io/caseforchildcare-y2-solutions-viz/assets/illustrations/detail-button.svg" alt="Arrow right" height="30px" width="30px" transform="translate(-15,-15)"></image></g></g><g class="petal " data-category="Employee Engagement &amp; Culture" data-solution="Mental health resources" fill="grey"><path d="M517.029,-203.708A15,15,0,0,1,536.706,-194.903A571,571,0,0,1,550.997,-149.811A15,15,0,0,1,539.983,-131.28L286.74,-71.245A15,15,0,0,1,268.924,-81.491A281,281,0,0,0,266.772,-88.282A15,15,0,0,1,275.434,-106.918Z" stroke="none"></path><path d="M515.934,-206.697A15,15,0,0,1,535.582,-197.973A571,571,0,0,1,551.846,-146.654A15,15,0,0,1,540.809,-128.206L287.647,-68.19A15,15,0,0,1,269.786,-78.591A281,281,0,0,0,265.806,-91.149A15,15,0,0,1,274.417,-109.939Z" opacity="0" stroke="red"></path><text text-anchor="middle" y="5" transform="rotate(-17.584418417762663) translate(426,0)" fill="black">Mental health resources</text><g class="detail-button-group " transform="rotate(-17.584418417762663) translate(301,0) rotate(17.584418417762663) "><image href="https://datacult.github.io/caseforchildcare-y2-solutions-viz/assets/illustrations/detail-button.svg" alt="Arrow right" height="30px" width="30px" transform="translate(-15,-15)"></image></g></g><g class="petal " data-category="Employee Engagement &amp; Culture" data-solution="Employee resource group" fill="grey"><path d="M541.637,-124.276A15,15,0,0,1,559.781,-112.635A571,571,0,0,1,567.183,-65.914A15,15,0,0,1,553.526,-49.234L294.161,-27.661A15,15,0,0,1,278.073,-40.45A281,281,0,0,0,276.959,-47.486A15,15,0,0,1,288.305,-64.621Z" stroke="none"></path><path d="M541,-127.395A15,15,0,0,1,559.127,-115.838A571,571,0,0,1,567.551,-62.666A15,15,0,0,1,553.885,-46.071L294.602,-24.505A15,15,0,0,1,278.493,-37.454A281,281,0,0,0,276.431,-50.465A15,15,0,0,1,287.749,-67.76Z" opacity="0" stroke="red"></path><text text-anchor="middle" y="5" transform="rotate(-9.002751416812757) translate(426,0)" fill="black">Employee resource group</text><g class="detail-button-group " transform="rotate(-9.002751416812757) translate(301,0) rotate(9.002751416812771) "><image href="https://datacult.github.io/caseforchildcare-y2-solutions-viz/assets/illustrations/detail-button.svg" alt="Arrow right" height="30px" width="30px" transform="translate(-15,-15)"></image></g></g><g class="petal " data-category="Employee Engagement &amp; Culture" data-solution="Coaching &amp; mentorship" fill="grey"><path d="M554.118,-42.062A15,15,0,0,1,570.321,-27.844A571,571,0,0,1,570.668,19.458A15,15,0,0,1,554.676,33.913L294.995,16.543A15,15,0,0,1,280.996,1.497A281,281,0,0,0,280.944,-5.627A15,15,0,0,1,294.72,-20.877Z" stroke="none"></path><path d="M553.953,-45.242A15,15,0,0,1,570.152,-31.109A571,571,0,0,1,570.548,22.725A15,15,0,0,1,554.558,37.095L294.961,19.73A15,15,0,0,1,280.964,4.522A281,281,0,0,0,280.867,-8.651A15,15,0,0,1,294.639,-24.063Z" opacity="0" stroke="red"></path><text text-anchor="middle" y="5" transform="rotate(-0.4210844158628362) translate(426,0)" fill="black">Coaching &amp; mentorship</text><g class="detail-button-group " transform="rotate(-0.4210844158628362) translate(301,0) rotate(0.42108441586282197) "><image href="https://datacult.github.io/caseforchildcare-y2-solutions-viz/assets/illustrations/detail-button.svg" alt="Arrow right" height="30px" width="30px" transform="translate(-15,-15)"></image></g></g><g class="petal " data-category="Employee Engagement &amp; Culture" data-solution="Diversity metrics" fill="grey"><path d="M554.19,41.093A15,15,0,0,1,568.09,57.571A571,571,0,0,1,561.376,104.395A15,15,0,0,1,543.405,116.302L289.223,60.377A15,15,0,0,1,277.627,43.41A281,281,0,0,0,278.638,36.358A15,15,0,0,1,294.535,23.334Z" stroke="none"></path><path d="M554.502,37.925A15,15,0,0,1,568.411,54.317A571,571,0,0,1,560.769,107.607A15,15,0,0,1,542.814,119.43L288.714,63.523A15,15,0,0,1,277.143,46.397A281,281,0,0,0,279.013,33.356A15,15,0,0,1,294.931,20.172Z" opacity="0" stroke="red"></path><text text-anchor="middle" y="5" transform="rotate(8.160582585087056) translate(426,0)" fill="black">Diversity metrics</text><g class="detail-button-group " transform="rotate(8.160582585087056) translate(301,0) rotate(-8.16058258508707) "><image href="https://datacult.github.io/caseforchildcare-y2-solutions-viz/assets/illustrations/detail-button.svg" alt="Arrow right" height="30px" width="30px" transform="translate(-15,-15)"></image></g></g><g class="petal " data-category="Employee Engagement &amp; Culture" data-solution="Manager training" fill="grey"><path d="M541.854,123.329A15,15,0,0,1,553.139,141.696A571,571,0,0,1,539.513,186.994A15,15,0,0,1,519.967,196.086L276.976,102.858A15,15,0,0,1,268.041,84.351A281,281,0,0,0,270.093,77.529A15,15,0,0,1,287.756,67.023Z" stroke="none"></path><path d="M542.635,120.243A15,15,0,0,1,553.942,138.527A571,571,0,0,1,538.434,190.08A15,15,0,0,1,518.916,199.091L276.003,105.893A15,15,0,0,1,267.117,87.232A281,281,0,0,0,270.912,74.617A15,15,0,0,1,288.619,63.955Z" opacity="0" stroke="red"></path><text text-anchor="middle" y="5" transform="rotate(16.742249586036976) translate(426,0)" fill="black">Manager training</text><g class="detail-button-group " transform="rotate(16.742249586036976) translate(301,0) rotate(-16.742249586036962) "><image href="https://datacult.github.io/caseforchildcare-y2-solutions-viz/assets/illustrations/detail-button.svg" alt="Arrow right" height="30px" width="30px" transform="translate(-15,-15)"></image></g></g></g>  <g class="petalGroup"><g class="petal " data-category="Financial Support &amp; Benefits" data-solution="Tax benefit education" fill="grey"><path d="M496.262,250.08A15,15,0,0,1,502.797,270.623A571,571,0,0,1,476.75,314.245A15,15,0,0,1,455.566,318.237L243.064,167.975A15,15,0,0,1,238.968,147.836A281,281,0,0,0,243.504,140.238A15,15,0,0,1,263.176,134.29Z" stroke="none"></path><path d="M497.762,247.272A15,15,0,0,1,504.338,267.739A571,571,0,0,1,474.943,316.97A15,15,0,0,1,453.807,320.89L241.372,170.676A15,15,0,0,1,237.362,150.4A281,281,0,0,0,245,137.608A15,15,0,0,1,264.752,131.52Z" opacity="0" stroke="red"></path><text text-anchor="middle" y="5" transform="rotate(30.84056983430503) translate(426,0)" fill="black">Tax benefit education</text><g class="detail-button-group " transform="rotate(30.84056983430503) translate(301,0) rotate(-30.84056983430503) "><image href="https://datacult.github.io/caseforchildcare-y2-solutions-viz/assets/illustrations/detail-button.svg" alt="Arrow right" height="30px" width="30px" transform="translate(-15,-15)"></image></g></g><g class="petal " data-category="Financial Support &amp; Benefits" data-solution="CHIPS Act grants" fill="grey"><path d="M451.387,324.138A15,15,0,0,1,454.651,345.447A571,571,0,0,1,422.144,384.493A15,15,0,0,1,400.597,385.146L214.018,203.696A15,15,0,0,1,213.1,183.165A281,281,0,0,0,218.762,176.364A15,15,0,0,1,239.119,173.544Z" stroke="none"></path><path d="M453.305,321.598A15,15,0,0,1,456.621,342.838A571,571,0,0,1,419.936,386.904A15,15,0,0,1,398.447,387.494L211.927,206.102A15,15,0,0,1,211.116,185.449A281,281,0,0,0,220.648,173.998A15,15,0,0,1,241.106,171.053Z" opacity="0" stroke="red"></path><text text-anchor="middle" y="5" transform="rotate(39.77769129706667) translate(426,0)" fill="black">CHIPS Act grants</text><g class="detail-button-group " transform="rotate(39.77769129706667) translate(301,0) rotate(-39.77769129706667) "><image href="https://datacult.github.io/caseforchildcare-y2-solutions-viz/assets/illustrations/detail-button.svg" alt="Arrow right" height="30px" width="30px" transform="translate(-15,-15)"></image></g></g><g class="petal " data-category="Financial Support &amp; Benefits" data-solution="Coverage bonus" fill="grey"><path d="M395.552,390.326A15,15,0,0,1,395.466,411.883A571,571,0,0,1,357.288,445.406A15,15,0,0,1,335.901,442.703L179.775,234.471A15,15,0,0,1,182.058,214.046A281,281,0,0,0,188.708,208.208A15,15,0,0,1,209.256,208.585Z" stroke="none"></path><path d="M397.842,388.115A15,15,0,0,1,397.818,409.612A571,571,0,0,1,354.732,447.444A15,15,0,0,1,333.412,444.688L177.336,236.522A15,15,0,0,1,179.743,215.994A281,281,0,0,0,190.939,206.164A15,15,0,0,1,211.606,206.432Z" opacity="0" stroke="red"></path><text text-anchor="middle" y="5" transform="rotate(48.714812759828305) translate(426,0)" fill="black">Coverage bonus</text><g class="detail-button-group " transform="rotate(48.714812759828305) translate(301,0) rotate(-48.714812759828305) "><image href="https://datacult.github.io/caseforchildcare-y2-solutions-viz/assets/illustrations/detail-button.svg" alt="Arrow right" height="30px" width="30px" transform="translate(-15,-15)"></image></g></g><g class="petal " data-category="Financial Support &amp; Benefits" data-solution="Flexible spending accounts" fill="grey"><path d="M330.112,447.036A15,15,0,0,1,326.679,468.318A571,571,0,0,1,283.756,495.503A15,15,0,0,1,263.049,489.511L141.167,259.552A15,15,0,0,1,146.596,239.731A281,281,0,0,0,154.072,234.996A15,15,0,0,1,174.311,238.56Z" stroke="none"></path><path d="M332.718,445.208A15,15,0,0,1,329.355,466.44A571,571,0,0,1,280.915,497.12A15,15,0,0,1,260.282,491.085L138.44,261.2A15,15,0,0,1,144.006,241.295A281,281,0,0,0,156.593,233.323A15,15,0,0,1,176.967,236.799Z" opacity="0" stroke="red"></path><text text-anchor="middle" y="5" transform="rotate(57.651934222589944) translate(426,0)" fill="black">Flexible spending accounts</text><g class="detail-button-group " transform="rotate(57.651934222589944) translate(301,0) rotate(-57.651934222589944) "><image href="https://datacult.github.io/caseforchildcare-y2-solutions-viz/assets/illustrations/detail-button.svg" alt="Arrow right" height="30px" width="30px" transform="translate(-15,-15)"></image></g></g><g class="petal " data-category="Financial Support &amp; Benefits" data-solution="Health insurance" fill="grey"><path d="M256.657,492.892A15,15,0,0,1,249.959,513.382A571,571,0,0,1,203.335,533.569A15,15,0,0,1,183.809,524.433L99.132,278.331A15,15,0,0,1,107.574,259.594A281,281,0,0,0,115.694,256.078A15,15,0,0,1,135.135,262.743Z" stroke="none"></path><path d="M259.515,491.49A15,15,0,0,1,252.894,511.943A571,571,0,0,1,200.276,534.725A15,15,0,0,1,180.831,525.558L96.181,279.536A15,15,0,0,1,104.772,260.737A281,281,0,0,0,118.445,254.817A15,15,0,0,1,138.032,261.416Z" opacity="0" stroke="red"></path><text text-anchor="middle" y="5" transform="rotate(66.58905568535164) translate(426,0)" fill="black">Health insurance</text><g class="detail-button-group " transform="rotate(66.58905568535164) translate(301,0) rotate(-66.58905568535164) "><image href="https://datacult.github.io/caseforchildcare-y2-solutions-viz/assets/illustrations/detail-button.svg" alt="Arrow right" height="30px" width="30px" transform="translate(-15,-15)"></image></g></g><g class="petal " data-category="Financial Support &amp; Benefits" data-solution="Family-sustaining wages" fill="grey"><path d="M176.97,526.78A15,15,0,0,1,167.17,545.981A571,571,0,0,1,117.976,558.679A15,15,0,0,1,100.107,546.621L54.69,290.353A15,15,0,0,1,65.94,273.154A281,281,0,0,0,74.508,270.942A15,15,0,0,1,92.677,280.547Z" stroke="none"></path><path d="M180.011,525.839A15,15,0,0,1,170.293,545.015A571,571,0,0,1,114.775,559.346A15,15,0,0,1,96.99,547.269L51.588,291.084A15,15,0,0,1,62.995,273.848A281,281,0,0,0,77.421,270.124A15,15,0,0,1,95.745,279.685Z" opacity="0" stroke="red"></path><text text-anchor="middle" y="5" transform="rotate(75.52617714811328) translate(426,0)" fill="black">Family-sustaining wages</text><g class="detail-button-group " transform="rotate(75.52617714811328) translate(301,0) rotate(-75.52617714811328) "><image href="https://datacult.github.io/caseforchildcare-y2-solutions-viz/assets/illustrations/detail-button.svg" alt="Arrow right" height="30px" width="30px" transform="translate(-15,-15)"></image></g></g><g class="petal " data-category="Financial Support &amp; Benefits" data-solution="Paid time off" fill="grey"><path d="M92.986,547.877A15,15,0,0,1,80.322,565.322A571,571,0,0,1,29.753,570.224A15,15,0,0,1,13.974,555.536L8.919,295.324A15,15,0,0,1,22.704,280.081A281,281,0,0,0,31.513,279.227A15,15,0,0,1,47.969,291.538Z" stroke="none"></path><path d="M96.137,547.42A15,15,0,0,1,83.558,564.853A571,571,0,0,1,26.487,570.385A15,15,0,0,1,10.794,555.693L5.741,295.564A15,15,0,0,1,19.688,280.309A281,281,0,0,0,34.517,278.872A15,15,0,0,1,51.133,291.164Z" opacity="0" stroke="red"></path><text text-anchor="middle" y="5" transform="rotate(84.46329861087494) translate(426,0)" fill="black">Paid time off</text><g class="detail-button-group " transform="rotate(84.46329861087494) translate(301,0) rotate(-84.46329861087497) "><image href="https://datacult.github.io/caseforchildcare-y2-solutions-viz/assets/illustrations/detail-button.svg" alt="Arrow right" height="30px" width="30px" transform="translate(-15,-15)"></image></g></g><g class="petal " data-category="Financial Support &amp; Benefits" data-solution="Employee assistance programs" fill="grey"><path d="M6.744,555.671A15,15,0,0,1,-8.476,570.937A571,571,0,0,1,-59.193,567.924A15,15,0,0,1,-72.499,550.962L-37.068,293.124A15,15,0,0,1,-21.082,280.208A281,281,0,0,0,-12.248,280.733A15,15,0,0,1,2.096,295.451Z" stroke="none"></path><path d="M9.927,555.709A15,15,0,0,1,-5.207,570.976A571,571,0,0,1,-62.444,567.575A15,15,0,0,1,-75.664,550.623L-40.244,292.868A15,15,0,0,1,-24.098,279.965A281,281,0,0,0,-9.225,280.849A15,15,0,0,1,5.28,295.573Z" opacity="0" stroke="red"></path><text text-anchor="middle" y="5" transform="rotate(93.40042007363655) translate(426,0)" fill="black">Employee assistance programs</text><g class="detail-button-group " transform="rotate(93.40042007363655) translate(301,0) rotate(-93.40042007363655) "><image href="https://datacult.github.io/caseforchildcare-y2-solutions-viz/assets/illustrations/detail-button.svg" alt="Arrow right" height="30px" width="30px" transform="translate(-15,-15)"></image></g></g><g class="petal " data-category="Financial Support &amp; Benefits" data-solution="Retirement benefits" fill="grey"><path d="M-79.661,549.972A15,15,0,0,1,-97.068,562.689A571,571,0,0,1,-146.702,551.833A15,15,0,0,1,-157.211,533.011L-82.155,283.807A15,15,0,0,1,-64.356,273.531A281,281,0,0,0,-55.711,275.422A15,15,0,0,1,-43.828,292.189Z" stroke="none"></path><path d="M-76.523,550.505A15,15,0,0,1,-93.845,563.235A571,571,0,0,1,-149.859,550.984A15,15,0,0,1,-160.285,532.184L-85.253,283.06A15,15,0,0,1,-67.298,272.822A281,281,0,0,0,-52.743,276.006A15,15,0,0,1,-40.701,292.804Z" opacity="0" stroke="red"></path><text text-anchor="middle" y="5" transform="rotate(282.33754153639825) translate(-426,0)" fill="black">Retirement benefits</text><g class="detail-button-group " transform="rotate(282.33754153639825) translate(-301,0) rotate(77.66245846360175) "><image href="https://datacult.github.io/caseforchildcare-y2-solutions-viz/assets/illustrations/detail-button.svg" alt="Arrow right" height="30px" width="30px" transform="translate(-15,-15)"></image></g></g><g class="petal " data-category="Financial Support &amp; Benefits" data-solution="Public benefits training" fill="grey"><path d="M-164.133,530.92A15,15,0,0,1,-183.304,540.778A571,571,0,0,1,-230.648,522.343A15,15,0,0,1,-238.105,502.117L-125.247,267.598A15,15,0,0,1,-106.068,260.212A281,281,0,0,0,-97.822,263.423A15,15,0,0,1,-88.688,281.833Z" stroke="none"></path><path d="M-161.115,531.933A15,15,0,0,1,-180.205,541.819A571,571,0,0,1,-233.635,521.014A15,15,0,0,1,-241.014,500.823L-128.191,266.379A15,15,0,0,1,-108.864,259.055A281,281,0,0,0,-94.98,264.461A15,15,0,0,1,-85.694,282.927Z" opacity="0" stroke="red"></path><text text-anchor="middle" y="5" transform="rotate(291.27466299915983) translate(-426,0)" fill="black">Public benefits training</text><g class="detail-button-group " transform="rotate(291.27466299915983) translate(-301,0) rotate(68.72533700084017) "><image href="https://datacult.github.io/caseforchildcare-y2-solutions-viz/assets/illustrations/detail-button.svg" alt="Arrow right" height="30px" width="30px" transform="translate(-15,-15)"></image></g></g></g>  <g class="petalGroup"><g class="petal " data-category="Flexible Work &amp; Leave Policies" data-solution="On-ramps" fill="grey"><path d="M-289.898,474.104A15,15,0,0,1,-310.907,478.934A571,571,0,0,1,-342.524,456.857A15,15,0,0,1,-345.227,435.47L-182.378,232.451A15,15,0,0,1,-162.028,229.582A281,281,0,0,0,-159.717,231.196A15,15,0,0,1,-155.401,251.289Z" stroke="none"></path><path d="M-287.222,475.83A15,15,0,0,1,-308.16,480.706A571,571,0,0,1,-345.134,454.888A15,15,0,0,1,-347.768,433.553L-184.972,230.6A15,15,0,0,1,-164.491,227.824A281,281,0,0,0,-157.218,232.902A15,15,0,0,1,-152.769,253.086Z" opacity="0" stroke="red"></path><text text-anchor="middle" y="5" transform="rotate(304.92526562022323) translate(-426,0)" fill="black">On-ramps</text><g class="detail-button-group " transform="rotate(304.92526562022323) translate(-301,0) rotate(55.07473437977677) "><image href="https://datacult.github.io/caseforchildcare-y2-solutions-viz/assets/illustrations/detail-button.svg" alt="Arrow right" height="30px" width="30px" transform="translate(-15,-15)"></image></g></g><g class="petal " data-category="Flexible Work &amp; Leave Policies" data-solution="Flexible work" fill="grey"><path d="M-350.77,431.017A15,15,0,0,1,-372.237,432.99A571,571,0,0,1,-400.613,406.878A15,15,0,0,1,-400.428,385.322L-211.862,205.937A15,15,0,0,1,-191.311,205.819A281,281,0,0,0,-189.236,207.728A15,15,0,0,1,-187.649,228.218Z" stroke="none"></path><path d="M-348.35,433.086A15,15,0,0,1,-369.752,435.115A571,571,0,0,1,-402.936,404.578A15,15,0,0,1,-402.69,383.082L-214.184,203.755A15,15,0,0,1,-193.515,203.747A281,281,0,0,0,-186.988,209.753A15,15,0,0,1,-185.282,230.351Z" opacity="0" stroke="red"></path><text text-anchor="middle" y="5" transform="rotate(312.620363062352) translate(-426,0)" fill="black">Flexible work</text><g class="detail-button-group " transform="rotate(312.620363062352) translate(-301,0) rotate(47.379636937648) "><image href="https://datacult.github.io/caseforchildcare-y2-solutions-viz/assets/illustrations/detail-button.svg" alt="Arrow right" height="30px" width="30px" transform="translate(-15,-15)"></image></g></g><g class="petal " data-category="Flexible Work &amp; Leave Policies" data-solution="Easy scheduling" fill="grey"><path d="M-405.325,380.167A15,15,0,0,1,-426.863,379.248A571,571,0,0,1,-451.487,349.572A15,15,0,0,1,-448.417,328.234L-237.529,175.714A15,15,0,0,1,-217.147,178.348A281,281,0,0,0,-215.347,180.518A15,15,0,0,1,-216.518,201.036Z" stroke="none"></path><path d="M-403.204,382.541A15,15,0,0,1,-424.684,381.686A571,571,0,0,1,-453.481,346.981A15,15,0,0,1,-450.359,325.712L-239.538,173.241A15,15,0,0,1,-219.055,176A281,281,0,0,0,-213.391,182.826A15,15,0,0,1,-214.458,203.467Z" opacity="0" stroke="red"></path><text text-anchor="middle" y="5" transform="rotate(320.3154605044808) translate(-426,0)" fill="black">Easy scheduling</text><g class="detail-button-group " transform="rotate(320.3154605044808) translate(-301,0) rotate(39.684539495519175) "><image href="https://datacult.github.io/caseforchildcare-y2-solutions-viz/assets/illustrations/detail-button.svg" alt="Arrow right" height="30px" width="30px" transform="translate(-15,-15)"></image></g></g></g>  <g class="petalGroup"><g class="petal " data-category="Learning &amp; Assessment" data-solution="Employee assessment" fill="grey"><path d="M-480.591,279.012A15,15,0,0,1,-501.367,273.261A571,571,0,0,1,-520.48,234.822A15,15,0,0,1,-512.526,214.786L-271.918,115.569A15,15,0,0,1,-252.71,122.877A281,281,0,0,0,-250.497,127.327A15,15,0,0,1,-256.263,147.053Z" stroke="none"></path><path d="M-479.06,281.803A15,15,0,0,1,-499.795,276.128A571,571,0,0,1,-521.816,231.838A15,15,0,0,1,-513.827,211.88L-273.296,112.696A15,15,0,0,1,-254.018,120.149A281,281,0,0,0,-249.112,130.017A15,15,0,0,1,-254.804,149.886Z" opacity="0" stroke="red"></path><text text-anchor="middle" y="5" transform="rotate(333.5625137249251) translate(-426,0)" fill="black">Employee assessment</text><g class="detail-button-group " transform="rotate(333.5625137249251) translate(-301,0) rotate(26.43748627507489) "><image href="https://datacult.github.io/caseforchildcare-y2-solutions-viz/assets/illustrations/detail-button.svg" alt="Arrow right" height="30px" width="30px" transform="translate(-15,-15)"></image></g></g><g class="petal " data-category="Learning &amp; Assessment" data-solution="Care leader collaboration" fill="grey"><path d="M-515.248,208.171A15,15,0,0,1,-535.001,199.537A571,571,0,0,1,-548.48,158.779A15,15,0,0,1,-537.769,140.071L-285.539,75.913A15,15,0,0,1,-267.559,85.867A281,281,0,0,0,-265.999,90.585A15,15,0,0,1,-274.499,109.296Z" stroke="none"></path><path d="M-514.127,211.15A15,15,0,0,1,-533.85,202.597A571,571,0,0,1,-549.38,155.636A15,15,0,0,1,-538.646,137.01L-286.497,72.874A15,15,0,0,1,-268.468,82.981A281,281,0,0,0,-265.008,93.444A15,15,0,0,1,-273.456,112.307Z" opacity="0" stroke="red"></path><text text-anchor="middle" y="5" transform="rotate(341.7005274636885) translate(-426,0)" fill="black">Care leader collaboration</text><g class="detail-button-group " transform="rotate(341.7005274636885) translate(-301,0) rotate(18.299472536311498) "><image href="https://datacult.github.io/caseforchildcare-y2-solutions-viz/assets/illustrations/detail-button.svg" alt="Arrow right" height="30px" width="30px" transform="translate(-15,-15)"></image></g></g><g class="petal " data-category="Learning &amp; Assessment" data-solution="ROI measurement" fill="grey"><path d="M-539.528,133.137A15,15,0,0,1,-557.859,121.794A571,571,0,0,1,-565.433,79.538A15,15,0,0,1,-552.182,62.535L-293.41,34.728A15,15,0,0,1,-277.02,47.127A281,281,0,0,0,-276.143,52.019A15,15,0,0,1,-287.207,69.338Z" stroke="none"></path><path d="M-538.84,136.245A15,15,0,0,1,-557.153,124.986A571,571,0,0,1,-565.879,76.299A15,15,0,0,1,-552.616,59.381L-293.928,31.584A15,15,0,0,1,-277.511,44.142A281,281,0,0,0,-275.567,54.989A15,15,0,0,1,-286.6,72.467Z" opacity="0" stroke="red"></path><text text-anchor="middle" y="5" transform="rotate(349.838541202452) translate(-426,0)" fill="black">ROI measurement</text><g class="detail-button-group " transform="rotate(349.838541202452) translate(-301,0) rotate(10.161458797547994) "><image href="https://datacult.github.io/caseforchildcare-y2-solutions-viz/assets/illustrations/detail-button.svg" alt="Arrow right" height="30px" width="30px" transform="translate(-15,-15)"></image></g></g><g class="petal " data-category="Learning &amp; Assessment" data-solution="Employee survey" fill="grey"><path d="M-552.941,55.422A15,15,0,0,1,-569.483,41.598A571,571,0,0,1,-570.999,-1.304A15,15,0,0,1,-555.474,-16.261L-295.372,-7.156A15,15,0,0,1,-280.902,7.438A281,281,0,0,0,-280.726,12.405A15,15,0,0,1,-294.13,27.983Z" stroke="none"></path><path d="M-552.7,58.596A15,15,0,0,1,-569.235,44.858A571,571,0,0,1,-570.982,-4.574A15,15,0,0,1,-555.457,-19.444L-295.439,-10.342A15,15,0,0,1,-280.965,4.413A281,281,0,0,0,-280.576,15.426A15,15,0,0,1,-293.972,31.166Z" opacity="0" stroke="red"></path><text text-anchor="middle" y="5" transform="rotate(357.9765549412154) translate(-426,0)" fill="black">Employee survey</text><g class="detail-button-group " transform="rotate(357.9765549412154) translate(-301,0) rotate(2.0234450587846027) "><image href="https://datacult.github.io/caseforchildcare-y2-solutions-viz/assets/illustrations/detail-button.svg" alt="Arrow right" height="30px" width="30px" transform="translate(-15,-15)"></image></g></g></g>  <g class="petalGroup"><g class="petal " data-category="Policy, Advocacy, &amp; Systemic Change" data-solution="Public-private partnerships" fill="grey"><path d="M-550.63,-74.981A15,15,0,0,1,-563.494,-92.279A571,571,0,0,1,-553.206,-141.437A15,15,0,0,1,-534.485,-152.124L-284.577,-79.446A15,15,0,0,1,-274.132,-61.747A281,281,0,0,0,-275.886,-53.367A15,15,0,0,1,-292.552,-41.342Z" stroke="none"></path><path d="M-551.135,-71.838A15,15,0,0,1,-564.013,-89.051A571,571,0,0,1,-552.387,-144.602A15,15,0,0,1,-533.687,-155.206L-283.859,-82.552A15,15,0,0,1,-273.451,-64.695A281,281,0,0,0,-276.444,-50.394A15,15,0,0,1,-293.14,-38.209Z" opacity="0" stroke="red"></path><text text-anchor="middle" y="5" transform="rotate(371.8208962725366) translate(-426,0)" fill="black">Public-private partnerships</text><g class="detail-button-group " transform="rotate(371.8208962725366) translate(-301,0) rotate(-11.820896272536572) "><image href="https://datacult.github.io/caseforchildcare-y2-solutions-viz/assets/illustrations/detail-button.svg" alt="Arrow right" height="30px" width="30px" transform="translate(-15,-15)"></image></g></g><g class="petal " data-category="Policy, Advocacy, &amp; Systemic Change" data-solution="Public policy" fill="grey"><path d="M-532.462,-159.06A15,15,0,0,1,-542.502,-178.137A571,571,0,0,1,-524.751,-225.118A15,15,0,0,1,-504.604,-232.788L-268.906,-122.413A15,15,0,0,1,-261.318,-103.314A281,281,0,0,0,-264.345,-95.305A15,15,0,0,1,-282.666,-85.995Z" stroke="none"></path><path d="M-533.446,-156.033A15,15,0,0,1,-543.513,-175.028A571,571,0,0,1,-523.453,-228.118A15,15,0,0,1,-503.341,-235.71L-267.719,-125.37A15,15,0,0,1,-260.191,-106.121A281,281,0,0,0,-265.355,-92.453A15,15,0,0,1,-283.731,-82.991Z" opacity="0" stroke="red"></path><text text-anchor="middle" y="5" transform="rotate(380.69874244907487) translate(-426,0)" fill="black">Public policy</text><g class="detail-button-group " transform="rotate(380.69874244907487) translate(-301,0) rotate(-20.69874244907487) "><image href="https://datacult.github.io/caseforchildcare-y2-solutions-viz/assets/illustrations/detail-button.svg" alt="Arrow right" height="30px" width="30px" transform="translate(-15,-15)"></image></g></g><g class="petal " data-category="Policy, Advocacy, &amp; Systemic Change" data-solution="Employee advocacy" fill="grey"><path d="M-501.535,-239.329A15,15,0,0,1,-508.511,-259.726A571,571,0,0,1,-483.722,-303.404A15,15,0,0,1,-462.633,-307.874L-246.793,-162.446A15,15,0,0,1,-242.243,-142.405A281,281,0,0,0,-246.469,-134.959A15,15,0,0,1,-266.009,-128.589Z" stroke="none"></path><path d="M-502.975,-236.49A15,15,0,0,1,-509.99,-256.81A571,571,0,0,1,-481.977,-306.169A15,15,0,0,1,-460.934,-310.566L-245.163,-165.185A15,15,0,0,1,-240.696,-145.005A281,281,0,0,0,-247.908,-132.297A15,15,0,0,1,-267.524,-125.785Z" opacity="0" stroke="red"></path><text text-anchor="middle" y="5" transform="rotate(389.5765886256132) translate(-426,0)" fill="black">Employee advocacy</text><g class="detail-button-group " transform="rotate(389.5765886256132) translate(-301,0) rotate(-29.576588625613226) "><image href="https://datacult.github.io/caseforchildcare-y2-solutions-viz/assets/illustrations/detail-button.svg" alt="Arrow right" height="30px" width="30px" transform="translate(-15,-15)"></image></g></g><g class="petal " data-category="Policy, Advocacy, &amp; Systemic Change" data-solution="Business partnerships" fill="grey"><path d="M-458.591,-313.863A15,15,0,0,1,-462.336,-335.092A571,571,0,0,1,-431.103,-374.422A15,15,0,0,1,-409.577,-375.583L-218.766,-198.587A15,15,0,0,1,-217.364,-178.084A281,281,0,0,0,-222.689,-171.379A15,15,0,0,1,-242.977,-168.101Z" stroke="none"></path><path d="M-460.452,-311.28A15,15,0,0,1,-464.247,-332.44A571,571,0,0,1,-428.952,-376.884A15,15,0,0,1,-407.482,-377.98L-216.733,-201.042A15,15,0,0,1,-215.434,-180.414A281,281,0,0,0,-224.521,-168.972A15,15,0,0,1,-244.907,-165.565Z" opacity="0" stroke="red"></path><text text-anchor="middle" y="5" transform="rotate(398.45443480215147) translate(-426,0)" fill="black">Business partnerships</text><g class="detail-button-group " transform="rotate(398.45443480215147) translate(-301,0) rotate(-38.45443480215147) "><image href="https://datacult.github.io/caseforchildcare-y2-solutions-viz/assets/illustrations/detail-button.svg" alt="Arrow right" height="30px" width="30px" transform="translate(-15,-15)"></image></g></g><g class="petal " data-category="Policy, Advocacy, &amp; Systemic Change" data-solution="Care campaign" fill="grey"><path d="M-404.659,-380.876A15,15,0,0,1,-405.082,-402.429A571,571,0,0,1,-368.154,-436.467A15,15,0,0,1,-346.707,-434.292L-185.498,-229.97A15,15,0,0,1,-187.277,-209.496A281,281,0,0,0,-193.572,-203.693A15,15,0,0,1,-214.123,-203.585Z" stroke="none"></path><path d="M-406.896,-378.611A15,15,0,0,1,-407.38,-400.103A571,571,0,0,1,-365.649,-438.568A15,15,0,0,1,-344.268,-436.338L-183.11,-232.081A15,15,0,0,1,-185.01,-211.5A281,281,0,0,0,-195.754,-201.597A15,15,0,0,1,-216.421,-201.377Z" opacity="0" stroke="red"></path><text text-anchor="middle" y="5" transform="rotate(407.3322809786898) translate(-426,0)" fill="black">Care campaign</text><g class="detail-button-group " transform="rotate(407.3322809786898) translate(-301,0) rotate(-47.33228097868982) "><image href="https://datacult.github.io/caseforchildcare-y2-solutions-viz/assets/illustrations/detail-button.svg" alt="Arrow right" height="30px" width="30px" transform="translate(-15,-15)"></image></g></g><g class="petal " data-category="Policy, Advocacy, &amp; Systemic Change" data-solution="Childcare philanthropy" fill="grey"><path d="M-341.031,-438.763A15,15,0,0,1,-338.123,-460.124A571,571,0,0,1,-296.384,-488.055A15,15,0,0,1,-275.529,-482.596L-147.784,-255.842A15,15,0,0,1,-152.702,-235.888A281,281,0,0,0,-159.817,-231.126A15,15,0,0,1,-180.139,-234.191Z" stroke="none"></path><path d="M-343.591,-436.871A15,15,0,0,1,-340.752,-458.18A571,571,0,0,1,-293.585,-489.744A15,15,0,0,1,-272.804,-484.241L-145.1,-257.56A15,15,0,0,1,-150.153,-237.518A281,281,0,0,0,-162.297,-229.392A15,15,0,0,1,-182.75,-232.365Z" opacity="0" stroke="red"></path><text text-anchor="middle" y="5" transform="rotate(416.2101271552281) translate(-426,0)" fill="black">Childcare philanthropy</text><g class="detail-button-group " transform="rotate(416.2101271552281) translate(-301,0) rotate(-56.21012715522812) "><image href="https://datacult.github.io/caseforchildcare-y2-solutions-viz/assets/illustrations/detail-button.svg" alt="Arrow right" height="30px" width="30px" transform="translate(-15,-15)"></image></g></g><g class="petal " data-category="Policy, Advocacy, &amp; Systemic Change" data-solution="Benefit cliff consideration" fill="grey"><path d="M-269.232,-486.138A15,15,0,0,1,-263.062,-506.793A571,571,0,0,1,-217.513,-527.948A15,15,0,0,1,-197.75,-519.336L-106.53,-275.585A15,15,0,0,1,-114.468,-256.628A281,281,0,0,0,-122.233,-253.022A15,15,0,0,1,-141.838,-259.186Z" stroke="none"></path><path d="M-272.053,-484.663A15,15,0,0,1,-265.96,-505.279A571,571,0,0,1,-214.486,-529.185A15,15,0,0,1,-194.803,-520.541L-103.613,-276.867A15,15,0,0,1,-111.699,-257.846A281,281,0,0,0,-124.95,-251.691A15,15,0,0,1,-144.701,-257.784Z" opacity="0" stroke="red"></path><text text-anchor="middle" y="5" transform="rotate(425.0879733317665) translate(-426,0)" fill="black">Benefit cliff consideration</text><g class="detail-button-group " transform="rotate(425.0879733317665) translate(-301,0) rotate(-65.08797333176648) "><image href="https://datacult.github.io/caseforchildcare-y2-solutions-viz/assets/illustrations/detail-button.svg" alt="Arrow right" height="30px" width="30px" transform="translate(-15,-15)"></image></g></g><g class="petal " data-category="Policy, Advocacy, &amp; Systemic Change" data-solution="Resource pooling" fill="grey"><path d="M-190.982,-521.864A15,15,0,0,1,-181.698,-541.319A571,571,0,0,1,-133.429,-555.191A15,15,0,0,1,-115.233,-543.633L-62.723,-288.724A15,15,0,0,1,-73.492,-271.219A281,281,0,0,0,-81.72,-268.855A15,15,0,0,1,-100.139,-277.971Z" stroke="none"></path><path d="M-193.997,-520.842A15,15,0,0,1,-184.794,-540.27A571,571,0,0,1,-130.248,-555.946A15,15,0,0,1,-112.135,-544.368L-59.643,-289.541A15,15,0,0,1,-70.568,-271.995A281,281,0,0,0,-84.61,-267.959A15,15,0,0,1,-103.184,-277.027Z" opacity="0" stroke="red"></path><text text-anchor="middle" y="5" transform="rotate(433.96581950830483) translate(-426,0)" fill="black">Resource pooling</text><g class="detail-button-group " transform="rotate(433.96581950830483) translate(-301,0) rotate(-73.96581950830483) "><image href="https://datacult.github.io/caseforchildcare-y2-solutions-viz/assets/illustrations/detail-button.svg" alt="Arrow right" height="30px" width="30px" transform="translate(-15,-15)"></image></g></g><g class="petal " data-category="Policy, Advocacy, &amp; Systemic Change" data-solution="Business councils" fill="grey"><path d="M-108.155,-545.085A15,15,0,0,1,-95.98,-562.875A571,571,0,0,1,-46.149,-569.132A15,15,0,0,1,-29.954,-554.904L-17.414,-294.945A15,15,0,0,1,-30.755,-279.312A281,281,0,0,0,-39.25,-278.245A15,15,0,0,1,-56.041,-290.095Z" stroke="none"></path><path d="M-111.292,-544.541A15,15,0,0,1,-99.202,-562.317A571,571,0,0,1,-42.89,-569.387A15,15,0,0,1,-26.78,-555.152L-14.244,-295.276A15,15,0,0,1,-27.746,-279.627A281,281,0,0,0,-42.243,-277.807A15,15,0,0,1,-59.194,-289.633Z" opacity="0" stroke="red"></path><text text-anchor="middle" y="5" transform="rotate(442.84366568484313) translate(-426,0)" fill="black">Business councils</text><g class="detail-button-group " transform="rotate(442.84366568484313) translate(-301,0) rotate(-82.84366568484313) "><image href="https://datacult.github.io/caseforchildcare-y2-solutions-viz/assets/illustrations/detail-button.svg" alt="Arrow right" height="30px" width="30px" transform="translate(-15,-15)"></image></g></g></g> </g></g></svg>