<svg width="122" height="122" viewBox="0 0 122 122" fill="none" xmlns="http://www.w3.org/2000/svg">
<path d="M91.267 22.27H32.2031V106.699H91.267V22.27Z" fill="#DCF0FF"/>
<path d="M64.9299 20.7525V19.2249C64.9299 18.355 64.2244 17.6548 63.3598 17.6548H60.1082C59.2383 17.6548 58.5381 18.3603 58.5381 19.2249V20.7525H51.4197C50.5498 20.7525 49.8496 21.458 49.8496 22.3226V25.7545H73.6184V22.3226C73.6184 21.4527 72.9129 20.7525 72.0483 20.7525H64.9299Z" fill="#1F6D7F"/>
<path d="M86.1655 28.8896H37.3018C36.7042 28.8896 36.2197 29.3741 36.2197 29.9717V33.6317C36.2197 34.2294 36.7042 34.7138 37.3018 34.7138H86.1655C86.7631 34.7138 87.2476 34.2294 87.2476 33.6317V29.9717C87.2476 29.3741 86.7631 28.8896 86.1655 28.8896Z" fill="#2B91AD"/>
<path d="M68.7855 42.7871H36.4449C36.3189 42.7871 36.2168 42.8892 36.2168 43.0152V44.0973C36.2168 44.2233 36.3189 44.3254 36.4449 44.3254H68.7855C68.9115 44.3254 69.0136 44.2233 69.0136 44.0973V43.0152C69.0136 42.8892 68.9115 42.7871 68.7855 42.7871Z" fill="#2B91AD"/>
<path d="M68.7855 60.4771H36.4449C36.3189 60.4771 36.2168 60.5792 36.2168 60.7051V61.7872C36.2168 61.9132 36.3189 62.0153 36.4449 62.0153H68.7855C68.9115 62.0153 69.0136 61.9132 69.0136 61.7872V60.7051C69.0136 60.5792 68.9115 60.4771 68.7855 60.4771Z" fill="#2B91AD"/>
<path d="M68.7855 78.167H36.4449C36.3189 78.167 36.2168 78.2691 36.2168 78.3951V79.4772C36.2168 79.6031 36.3189 79.7053 36.4449 79.7053H68.7855C68.9115 79.7053 69.0136 79.6031 69.0136 79.4772V78.3951C69.0136 78.2691 68.9115 78.167 68.7855 78.167Z" fill="#2B91AD"/>
<path d="M68.7855 95.8521H36.4449C36.3189 95.8521 36.2168 95.9542 36.2168 96.0801V97.1622C36.2168 97.2882 36.3189 97.3903 36.4449 97.3903H68.7855C68.9115 97.3903 69.0136 97.2882 69.0136 97.1622V96.0801C69.0136 95.9542 68.9115 95.8521 68.7855 95.8521Z" fill="#2B91AD"/>
<path d="M64.9299 19.0977V17.5701C64.9299 16.7002 64.2244 16 63.3598 16H60.1082C59.2383 16 58.5381 16.7055 58.5381 17.5701V19.0977H51.4197C50.5498 19.0977 49.8496 19.8032 49.8496 20.6678V24.0997H73.6184V20.6678C73.6184 19.7979 72.9129 19.0977 72.0483 19.0977H64.9299Z" fill="#2B91AD"/>
<path d="M87.2414 38.4795H77.5186V48.2024H87.2414V38.4795Z" stroke="#2B91AD" stroke-width="0.530435" stroke-miterlimit="10"/>
<path d="M76.2266 42.145L82.2364 47.1152L85.7585 36.48" stroke="#2B91AD" stroke-width="1.06087" stroke-miterlimit="10"/>
<path d="M87.2414 56.5088H77.5186V66.2317H87.2414V56.5088Z" stroke="#2B91AD" stroke-width="0.530435" stroke-miterlimit="10"/>
<path d="M76.2266 60.1743L82.2364 65.1445L85.7585 54.5093" stroke="#2B91AD" stroke-width="1.06087" stroke-miterlimit="10"/>
<path d="M87.2414 74.5391H77.5186V84.2619H87.2414V74.5391Z" stroke="#2B91AD" stroke-width="0.530435" stroke-miterlimit="10"/>
<path d="M76.2266 78.2041L82.2364 83.1743L85.7585 72.5391" stroke="#2B91AD" stroke-width="1.06087" stroke-miterlimit="10"/>
<path d="M87.2414 92.5684H77.5186V102.291H87.2414V92.5684Z" stroke="#2B91AD" stroke-width="0.530435" stroke-miterlimit="10"/>
<path d="M76.2266 96.2339L82.2364 101.204L85.7585 90.5688" stroke="#2B91AD" stroke-width="1.06087" stroke-miterlimit="10"/>
</svg>
