<svg width="41" height="42" viewBox="0 0 41 42" fill="none" xmlns="http://www.w3.org/2000/svg">
<path d="M4 23.0269C4 15.2949 10.268 9.02686 18 9.02686C25.732 9.02686 32 15.2949 32 23.0269C32 30.7588 25.732 37.0269 18 37.0269C10.268 37.0269 4 30.7588 4 23.0269Z" fill="white"/>
<path d="M18 19.0269L17.295 19.7319L20.085 22.5269H14V23.5269H20.085L17.295 26.3219L18 27.0269L22 23.0269L18 19.0269Z" fill="#202124"/>
<path opacity="0.9" d="M4.26723 9.58926C4.19048 9.35524 4.18139 9.12264 4.23995 8.89144C4.30179 8.65692 4.43792 8.43369 4.64834 8.22173L5.11531 8.68531L4.99695 8.80454C4.49391 9.31124 4.51727 9.83749 5.06703 10.3833L6.5474 11.8529L6.09862 12.305L3.37632 9.60239L3.8251 9.15033L4.26723 9.58926Z" fill="white"/>
<path opacity="0.9" d="M9.79179 6.82773C9.8573 6.92986 9.9207 7.04166 9.98198 7.16313L7.40126 8.81849C7.62499 9.12407 7.893 9.30421 8.2053 9.35892C8.51901 9.40718 8.81728 9.34061 9.1001 9.1592C9.33185 9.01054 9.49031 8.83406 9.57548 8.62974C9.66205 8.41897 9.67881 8.20308 9.62576 7.98208L10.2032 7.6117C10.3158 7.97745 10.3055 8.34167 10.1722 8.70436C10.0364 9.06313 9.77606 9.36597 9.39111 9.61289C9.08472 9.80941 8.76567 9.91704 8.43394 9.93578C8.10615 9.95199 7.79288 9.87849 7.49415 9.71528C7.19289 9.54815 6.93518 9.29764 6.72102 8.96375C6.50686 8.62987 6.38592 8.2944 6.35822 7.95734C6.33052 7.62028 6.39365 7.30812 6.54759 7.02087C6.70294 6.72718 6.93774 6.47955 7.25199 6.27798C7.55837 6.08145 7.87224 5.97438 8.19359 5.95676C8.51494 5.93914 8.81405 6.00785 9.09092 6.16291C9.3692 6.31152 9.60282 6.53312 9.79179 6.82773ZM9.16613 7.07104C9.03511 6.86678 8.87782 6.72096 8.69425 6.63357C8.50816 6.54226 8.31262 6.50967 8.10763 6.53582C7.90404 6.55553 7.70798 6.62585 7.51943 6.74679C7.24839 6.92064 7.07207 7.15571 6.99046 7.452C6.91277 7.74578 6.95845 8.05468 7.12748 8.3787L9.16613 7.07104Z" fill="white"/>
<path opacity="0.9" d="M10.8156 6.45496C10.7031 6.07946 10.6806 5.72812 10.7482 5.40095C10.8144 5.0693 10.956 4.78573 11.1729 4.55024C11.3942 4.3134 11.668 4.14609 11.9943 4.0483C12.3162 3.95185 12.6164 3.93741 12.8948 4.00499C13.1733 4.07257 13.4021 4.194 13.5813 4.36927L13.3803 3.69873L13.9972 3.51387L15.0984 7.18843L14.4815 7.37329L14.2765 6.68934C14.2201 6.94008 14.0927 7.17315 13.8941 7.38853C13.6987 7.59811 13.4423 7.75045 13.125 7.84556C12.7986 7.94335 12.4795 7.9513 12.1675 7.86941C11.8555 7.78752 11.58 7.62406 11.341 7.37904C11.1019 7.13402 10.9268 6.82599 10.8156 6.45496ZM13.9289 5.52931C13.8458 5.25215 13.7176 5.0275 13.5443 4.85536C13.3709 4.68322 13.172 4.5723 12.9476 4.52262C12.7264 4.46713 12.5018 4.47354 12.2738 4.54186C12.0458 4.61018 11.854 4.72611 11.6984 4.88966C11.5428 5.05321 11.4399 5.25455 11.3898 5.49367C11.3397 5.73279 11.3561 5.99093 11.4392 6.26809C11.5236 6.54971 11.6531 6.77883 11.8279 6.95544C12.0012 7.12759 12.1985 7.2414 12.4198 7.2969C12.6397 7.34792 12.8636 7.33927 13.0916 7.27095C13.3196 7.20263 13.5114 7.0867 13.667 6.92315C13.8257 6.75379 13.9302 6.54955 13.9803 6.31043C14.0291 6.06684 14.012 5.80646 13.9289 5.52931Z" fill="white"/>
<path opacity="0.9" d="M15.7044 5.12035C15.6998 4.72838 15.7752 4.38448 15.9305 4.08867C16.0857 3.78818 16.3 3.55468 16.5734 3.38817C16.8515 3.22161 17.1632 3.13633 17.5085 3.13233C17.8071 3.12887 18.0856 3.19565 18.3439 3.33267C18.6021 3.46502 18.8001 3.6424 18.9381 3.86482L18.9146 1.83496L19.5585 1.8275L19.6185 7.00715L18.9745 7.01461L18.9662 6.29366C18.8428 6.52377 18.6584 6.71492 18.4128 6.86711C18.1672 7.01463 17.8787 7.09031 17.5474 7.09414C17.2067 7.09809 16.8954 7.01769 16.6135 6.85294C16.3362 6.68814 16.1165 6.455 15.9544 6.15353C15.7922 5.85205 15.7089 5.50766 15.7044 5.12035ZM18.9522 5.08974C18.9489 4.80043 18.8877 4.54912 18.7685 4.33582C18.6494 4.12252 18.4888 3.96103 18.2869 3.85136C18.0895 3.73697 17.8719 3.68116 17.6339 3.68391C17.3959 3.68667 17.1796 3.74518 16.9849 3.85944C16.7902 3.9737 16.6357 4.13884 16.5216 4.35484C16.4074 4.57084 16.352 4.8235 16.3553 5.11281C16.3587 5.40679 16.42 5.66277 16.5392 5.88074C16.6584 6.09404 16.8166 6.25788 17.014 6.37227C17.2113 6.48199 17.4289 6.53548 17.6669 6.53272C17.9049 6.52997 18.1212 6.47146 18.3159 6.35719C18.5152 6.23821 18.6719 6.07072 18.7861 5.85472C18.9002 5.63405 18.9556 5.37905 18.9522 5.08974Z" fill="white"/>
<path opacity="0.9" d="M28.2305 5.88187C28.4977 6.01537 28.7074 6.19063 28.8599 6.40764C29.0143 6.62047 29.0968 6.86776 29.1073 7.1495C29.1179 7.43125 29.0438 7.73075 28.8853 8.04801L27.8747 10.0706L27.3111 9.78896L28.2811 7.84781C28.4521 7.5055 28.4969 7.20183 28.4155 6.9368C28.3403 6.66969 28.1586 6.46416 27.8706 6.32023C27.5742 6.17213 27.2904 6.15028 27.0191 6.2547C26.7499 6.35494 26.5256 6.58457 26.3462 6.94357L25.4013 8.83463L24.8377 8.55302L25.8077 6.61188C25.9787 6.26957 26.0235 5.9659 25.9421 5.70087C25.8669 5.43375 25.6852 5.22823 25.3972 5.08429C25.1008 4.93619 24.817 4.91435 24.5457 5.01877C24.2765 5.11901 24.0522 5.34863 23.8728 5.70764L22.9279 7.59869L22.358 7.31396L24.0727 3.88251L24.6425 4.16725L24.3953 4.66193C24.5977 4.53874 24.8169 4.47608 25.0527 4.47393C25.2927 4.47387 25.5275 4.53121 25.7571 4.64594C26.0451 4.78987 26.2675 4.98182 26.424 5.22178C26.5806 5.46175 26.6506 5.73408 26.634 6.03879C26.851 5.84465 27.1035 5.73606 27.3915 5.71303C27.6795 5.69 27.9592 5.74628 28.2305 5.88187Z" fill="white"/>
<path opacity="0.9" d="M29.6889 12.1933C29.4451 11.9292 29.2836 11.6338 29.2042 11.307C29.1279 10.9836 29.1426 10.6589 29.2481 10.3329C29.3602 10.0071 29.562 9.70969 29.8534 9.44063C30.1415 9.17475 30.4522 9.00223 30.7856 8.9231C31.1256 8.84423 31.4536 8.859 31.7696 8.9674C32.0891 9.07265 32.3722 9.259 32.6191 9.52647C32.866 9.79394 33.0292 10.0911 33.1086 10.4179C33.1914 10.7415 33.18 11.0664 33.0745 11.3924C32.9722 11.7219 32.7753 12.0211 32.4838 12.2902C32.1924 12.5592 31.875 12.7315 31.5319 12.8069C31.1953 12.8826 30.8657 12.8661 30.5431 12.7575C30.2205 12.6488 29.9358 12.4607 29.6889 12.1933ZM30.1003 11.8134C30.2554 11.9814 30.4405 12.1028 30.6555 12.1774C30.8704 12.2521 31.0979 12.2612 31.338 12.2047C31.5812 12.1517 31.8159 12.0207 32.0423 11.8118C32.2686 11.6029 32.4195 11.3811 32.4949 11.1463C32.5703 10.9116 32.5793 10.6873 32.5218 10.4737C32.4677 10.2569 32.3631 10.0644 32.208 9.89642C32.0498 9.72497 31.8647 9.60363 31.6529 9.53241C31.4477 9.46146 31.2266 9.45592 30.9898 9.5158C30.7529 9.57568 30.5213 9.71008 30.295 9.91899C30.0652 10.1311 29.9095 10.3511 29.8277 10.579C29.7491 10.8103 29.7353 11.0327 29.7862 11.246C29.8405 11.4563 29.9452 11.6454 30.1003 11.8134Z" fill="white"/>
<path opacity="0.9" d="M34.5454 13.2534C34.7914 13.2401 35.0183 13.2917 35.2264 13.4084C35.4368 13.529 35.617 13.7185 35.767 13.9767L35.198 14.3072L35.1136 14.1619C34.755 13.5445 34.2408 13.4304 33.5709 13.8195L31.7671 14.8672L31.4472 14.3164L34.7642 12.3897L35.0842 12.9405L34.5454 13.2534Z" fill="white"/>
<path opacity="0.9" d="M35.7994 19.4083C35.6836 19.4445 35.559 19.476 35.4257 19.503L34.5123 16.5762C34.1584 16.7111 33.9138 16.9218 33.7784 17.2085C33.6488 17.4983 33.6341 17.8035 33.7342 18.1243C33.8162 18.3871 33.9444 18.5866 34.1189 18.7228C34.2993 18.8621 34.503 18.9354 34.7302 18.9427L34.9346 19.5976C34.552 19.6094 34.2035 19.503 33.889 19.2785C33.579 19.0526 33.3559 18.7214 33.2196 18.2848C33.1112 17.9374 33.0918 17.6012 33.1616 17.2763C33.2327 16.9559 33.3865 16.6733 33.6229 16.4284C33.8638 16.1821 34.1736 15.9999 34.5523 15.8817C34.9309 15.7636 35.2864 15.7357 35.6188 15.7982C35.9512 15.8607 36.2355 16.0042 36.4718 16.2287C36.7139 16.4562 36.8905 16.7482 37.0017 17.1046C37.1102 17.452 37.1304 17.783 37.0623 18.0976C36.9943 18.4122 36.8488 18.6824 36.626 18.9084C36.4091 19.1374 36.1336 19.3041 35.7994 19.4083ZM35.7304 18.7406C35.962 18.6683 36.1443 18.5552 36.2771 18.4013C36.4145 18.246 36.4976 18.0661 36.5267 17.8615C36.5615 17.6599 36.5456 17.4522 36.4789 17.2384C36.383 16.931 36.2029 16.6988 35.9388 16.5417C35.6761 16.389 35.3661 16.3513 35.0089 16.4285L35.7304 18.7406Z" fill="white"/>
</svg>
