<svg width="122" height="122" viewBox="0 0 122 122" fill="none" xmlns="http://www.w3.org/2000/svg">
<path d="M98.2947 76.1275C107.177 76.1275 114.377 68.927 114.377 60.0447C114.377 51.1624 107.177 43.9619 98.2947 43.9619C89.4124 43.9619 82.2119 51.1624 82.2119 60.0447C82.2119 68.927 89.4124 76.1275 98.2947 76.1275Z" fill="#9AC6EF"/>
<path d="M85.8559 49.8442C85.8559 49.8442 101.058 58.0342 113.332 54.337C113.332 54.337 116.902 61.8162 111.805 68.8497C111.805 68.8497 89.1075 72.0801 82.2331 61.1372C82.2331 61.1372 81.4215 55.1857 85.8559 49.8442Z" fill="#8B75E0"/>
<path d="M22.0663 82.9601C24.3659 82.9601 26.2302 81.0959 26.2302 78.7962C26.2302 76.4966 24.3659 74.6323 22.0663 74.6323C19.7666 74.6323 17.9023 76.4966 17.9023 78.7962C17.9023 81.0959 19.7666 82.9601 22.0663 82.9601Z" fill="#A22022"/>
<path d="M22.0672 81.4865C23.5525 81.4865 24.7565 80.2825 24.7565 78.7972C24.7565 77.312 23.5525 76.1079 22.0672 76.1079C20.582 76.1079 19.3779 77.312 19.3779 78.7972C19.3779 80.2825 20.582 81.4865 22.0672 81.4865Z" fill="#FFEC5C"/>
<path d="M29.3758 76.7648C31.6755 76.7648 33.5397 74.9006 33.5397 72.6009C33.5397 70.3013 31.6755 68.437 29.3758 68.437C27.0762 68.437 25.2119 70.3013 25.2119 72.6009C25.2119 74.9006 27.0762 76.7648 29.3758 76.7648Z" fill="#A22022"/>
<path d="M29.3768 75.2912C30.8621 75.2912 32.0661 74.0872 32.0661 72.6019C32.0661 71.1166 30.8621 69.9126 29.3768 69.9126C27.8915 69.9126 26.6875 71.1166 26.6875 72.6019C26.6875 74.0872 27.8915 75.2912 29.3768 75.2912Z" fill="#FFEC5C"/>
<path d="M14.6284 68.328L14.7875 83.5356C20.1237 76.8415 37.4106 73.6218 37.4106 73.6218L37.3681 61.8779C25.9903 62.1909 18.612 65.0924 15.8431 66.3919C15.0952 66.7473 14.6178 67.5005 14.6231 68.328H14.6284Z" fill="#FFEC5C"/>
<path d="M16.7766 70.0395L16.8986 81.4969C21.2323 76.06 35.2729 73.4449 35.2729 73.4449L35.2411 63.9077C27.0087 64.1358 21.3543 66.0295 18.6278 67.1858C17.4874 67.6685 16.7607 68.8036 16.7766 70.0395Z" fill="#9AC6EF"/>
<path d="M60.1648 96.0073C74.7069 96.0073 86.4955 84.2186 86.4955 69.6765C86.4955 55.1344 74.7069 43.3457 60.1648 43.3457C45.6227 43.3457 33.834 55.1344 33.834 69.6765C33.834 84.2186 45.6227 96.0073 60.1648 96.0073Z" fill="#C0614B"/>
<path d="M60.1621 88.3799C70.4916 88.3799 78.8652 80.0062 78.8652 69.6768C78.8652 59.3473 70.4916 50.9736 60.1621 50.9736C49.8327 50.9736 41.459 59.3473 41.459 69.6768C41.459 80.0062 49.8327 88.3799 60.1621 88.3799Z" fill="#D68274"/>
<path d="M71.2222 31.3027C75.0803 31.3027 78.208 28.175 78.208 24.3169C78.208 20.4587 75.0803 17.3311 71.2222 17.3311C67.364 17.3311 64.2363 20.4587 64.2363 24.3169C64.2363 28.175 67.364 31.3027 71.2222 31.3027Z" fill="#6C3F1F"/>
<path d="M49.0962 31.3027C52.9543 31.3027 56.082 28.175 56.082 24.3169C56.082 20.4587 52.9543 17.3311 49.0962 17.3311C45.238 17.3311 42.1104 20.4587 42.1104 24.3169C42.1104 28.175 45.238 31.3027 49.0962 31.3027Z" fill="#6C3F1F"/>
<path d="M60.1632 49.8131C67.982 49.8131 74.3205 43.4747 74.3205 35.6558C74.3205 27.837 67.982 21.4985 60.1632 21.4985C52.3443 21.4985 46.0059 27.837 46.0059 35.6558C46.0059 43.4747 52.3443 49.8131 60.1632 49.8131Z" fill="#C0614B"/>
<path d="M60.136 37.6757C61.1554 37.6757 61.9819 36.8493 61.9819 35.8298C61.9819 34.8103 61.1554 33.9839 60.136 33.9839C59.1165 33.9839 58.29 34.8103 58.29 35.8298C58.29 36.8493 59.1165 37.6757 60.136 37.6757Z" fill="#6C3F1F"/>
<path d="M55.0041 31.681C55.4259 31.681 55.7679 31.339 55.7679 30.9171C55.7679 30.4953 55.4259 30.1533 55.0041 30.1533C54.5822 30.1533 54.2402 30.4953 54.2402 30.9171C54.2402 31.339 54.5822 31.681 55.0041 31.681Z" fill="#6C3F1F"/>
<path d="M65.3214 31.681C65.7433 31.681 66.0853 31.339 66.0853 30.9171C66.0853 30.4953 65.7433 30.1533 65.3214 30.1533C64.8996 30.1533 64.5576 30.4953 64.5576 30.9171C64.5576 31.339 64.8996 31.681 65.3214 31.681Z" fill="#6C3F1F"/>
<path d="M60.136 36.0366V41.5903L58.29 39.9459C58.29 40.9644 59.1175 41.7918 60.136 41.7918C61.1544 41.7918 61.9819 40.9644 61.9819 39.9459" stroke="#6C3F1F" stroke-width="0.45087" stroke-miterlimit="10"/>
<path d="M94.0355 87.6941C97.1261 82.341 96.4602 76.1704 92.5481 73.9118C88.636 71.6531 82.9592 74.1617 79.8685 79.5148C76.7779 84.868 77.4438 91.0385 81.3559 93.2972C85.268 95.5558 90.9449 93.0473 94.0355 87.6941Z" fill="#6C3F1F"/>
<path d="M92.1942 86.6305C94.4806 82.6702 93.9875 78.1049 91.0928 76.4336C88.198 74.7623 83.9978 76.618 81.7113 80.5783C79.4248 84.5386 79.9179 89.1039 82.8127 90.7752C85.7074 92.4464 89.9077 90.5908 92.1942 86.6305Z" fill="#C0614B"/>
<path d="M87.7912 56.3571C89.5035 53.3914 89.1352 49.9731 86.9685 48.7222C84.8019 47.4712 81.6574 48.8614 79.9451 51.8272C78.2328 54.793 78.6011 58.2113 80.7677 59.4622C82.9344 60.7131 86.0789 59.3229 87.7912 56.3571Z" fill="#6C3F1F"/>
<path d="M86.7715 55.7694C88.0385 53.5749 87.7658 51.0454 86.1624 50.1197C84.559 49.194 82.232 50.2225 80.965 52.4171C79.698 54.6116 79.9707 57.1411 81.5741 58.0668C83.1775 58.9925 85.5045 57.964 86.7715 55.7694Z" fill="#C0614B"/>
<path d="M40.0076 59.46C42.1742 58.2091 42.5425 54.7908 40.8302 51.825C39.1179 48.8592 35.9734 47.469 33.8068 48.7199C31.6402 49.9708 31.2719 53.3891 32.9842 56.3549C34.6965 59.3207 37.841 60.7109 40.0076 59.46Z" fill="#6C3F1F"/>
<path d="M39.2034 58.0624C40.8068 57.1367 41.0795 54.6072 39.8125 52.4127C38.5455 50.2182 36.2185 49.1896 34.6151 50.1153C33.0117 51.0411 32.739 53.5705 34.006 55.7651C35.2731 57.9596 37.6 58.9882 39.2034 58.0624Z" fill="#C0614B"/>
<path d="M40.7493 93.2953C44.6614 91.0366 45.3273 84.866 42.2367 79.5129C39.1461 74.1598 33.4692 71.6512 29.5571 73.9099C25.645 76.1685 24.9791 82.3391 28.0697 87.6922C31.1604 93.0453 36.8372 95.5539 40.7493 93.2953Z" fill="#6C3F1F"/>
<path d="M39.294 90.7763C42.1887 89.1051 42.6818 84.5397 40.3953 80.5794C38.1088 76.6191 33.9086 74.7635 31.0139 76.4348C28.1191 78.1061 27.626 82.6714 29.9125 86.6317C32.199 90.592 36.3992 92.4476 39.294 90.7763Z" fill="#C0614B"/>
<path d="M31.5575 102.751C33.8571 102.751 35.7214 100.886 35.7214 98.5868C35.7214 96.2871 33.8571 94.4229 31.5575 94.4229C29.2578 94.4229 27.3936 96.2871 27.3936 98.5868C27.3936 100.886 29.2578 102.751 31.5575 102.751Z" fill="#A22022"/>
<path d="M31.5584 101.277C33.0437 101.277 34.2477 100.073 34.2477 98.5877C34.2477 97.1025 33.0437 95.8984 31.5584 95.8984C30.0732 95.8984 28.8691 97.1025 28.8691 98.5877C28.8691 100.073 30.0732 101.277 31.5584 101.277Z" fill="#FFEC5C"/>
<path d="M20.5291 100.396C22.8288 100.396 24.6931 98.5314 24.6931 96.2318C24.6931 93.9321 22.8288 92.0679 20.5291 92.0679C18.2295 92.0679 16.3652 93.9321 16.3652 96.2318C16.3652 98.5314 18.2295 100.396 20.5291 100.396Z" fill="#A22022"/>
<path d="M20.5301 98.9221C22.0154 98.9221 23.2194 97.718 23.2194 96.2328C23.2194 94.7475 22.0154 93.5435 20.5301 93.5435C19.0449 93.5435 17.8408 94.7475 17.8408 96.2328C17.8408 97.718 19.0449 98.9221 20.5301 98.9221Z" fill="#FFEC5C"/>
<path d="M44.5975 104.259C46.8972 104.259 48.7614 102.395 48.7614 100.095C48.7614 97.7954 46.8972 95.9312 44.5975 95.9312C42.2978 95.9312 40.4336 97.7954 40.4336 100.095C40.4336 102.395 42.2978 104.259 44.5975 104.259Z" fill="#A22022"/>
<path d="M44.5985 102.785C46.0837 102.785 47.2878 101.581 47.2878 100.096C47.2878 98.6108 46.0837 97.4067 44.5985 97.4067C43.1132 97.4067 41.9092 98.6108 41.9092 100.096C41.9092 101.581 43.1132 102.785 44.5985 102.785Z" fill="#FFEC5C"/>
<path d="M53.8543 104.259C56.154 104.259 58.0183 102.395 58.0183 100.095C58.0183 97.7954 56.154 95.9312 53.8543 95.9312C51.5547 95.9312 49.6904 97.7954 49.6904 100.095C49.6904 102.395 51.5547 104.259 53.8543 104.259Z" fill="#A22022"/>
<path d="M53.8553 102.785C55.3406 102.785 56.5446 101.581 56.5446 100.096C56.5446 98.6108 55.3406 97.4067 53.8553 97.4067C52.3701 97.4067 51.166 98.6108 51.166 100.096C51.166 101.581 52.3701 102.785 53.8553 102.785Z" fill="#FFEC5C"/>
<path d="M63.1083 104.259C65.4079 104.259 67.2722 102.395 67.2722 100.095C67.2722 97.7954 65.4079 95.9312 63.1083 95.9312C60.8086 95.9312 58.9443 97.7954 58.9443 100.095C58.9443 102.395 60.8086 104.259 63.1083 104.259Z" fill="#A22022"/>
<path d="M63.1092 102.785C64.5945 102.785 65.7985 101.581 65.7985 100.096C65.7985 98.6108 64.5945 97.4067 63.1092 97.4067C61.624 97.4067 60.4199 98.6108 60.4199 100.096C60.4199 101.581 61.624 102.785 63.1092 102.785Z" fill="#FFEC5C"/>
<path d="M39.2571 94.7344L64.7339 95.1746C65.2272 95.1746 65.6887 95.4239 65.9539 95.843L69.1471 100.818C69.354 101.137 69.1206 101.561 68.744 101.561H64.405C64.1398 101.561 63.9223 101.344 63.9223 101.078V99.3173L39.5595 98.8824C39.3738 98.8824 39.2253 98.7286 39.2306 98.5429L39.2624 94.7344H39.2571Z" fill="#F2B705"/>
<path d="M57.8013 82.4873H59.4563C60.114 82.4873 60.6498 83.023 60.6498 83.6808V87.2877H56.6025V83.6808C56.6025 83.023 57.1383 82.4873 57.796 82.4873H57.8013Z" fill="#A22022"/>
<path d="M40.4664 86.7329H63.6623V95.2146H39.2676V87.9317C39.2676 87.2687 39.8033 86.7329 40.4664 86.7329Z" fill="#FFEC5C"/>
<path d="M63.8392 95.2293C65.1517 95.2293 66.2156 93.3152 66.2156 90.954C66.2156 88.5928 65.1517 86.6787 63.8392 86.6787C62.5268 86.6787 61.4629 88.5928 61.4629 90.954C61.4629 93.3152 62.5268 95.2293 63.8392 95.2293Z" fill="#F2B705"/>
<path d="M57.7845 86.7158H57.1533V95.2611H57.7845V86.7158Z" fill="#A22022"/>
<path d="M60.0873 86.7158H59.4561V95.2611H60.0873V86.7158Z" fill="#A22022"/>
<path d="M39.8463 97.7087C39.8463 97.7087 30.675 98.1596 13.9504 93.2584C13.9186 93.2477 13.9557 91.9164 13.9982 91.9323C23.2383 95.9105 39.8463 96.3773 39.8463 96.3773V97.714V97.7087Z" fill="#F2B705"/>
<path d="M41.3632 78.02H51.9825C53.1442 78.02 54.083 78.9642 54.083 80.1205V91.0157H39.2627V80.1205C39.2627 78.9589 40.2069 78.02 41.3632 78.02Z" fill="#FFEC5C"/>
<path d="M43.0968 79.5933H50.2364C51.3026 79.5933 52.1725 80.4579 52.1725 81.5293V91.4379H41.166V81.5293C41.166 80.4632 42.0306 79.5933 43.1021 79.5933H43.0968Z" fill="#9AC6EF"/>
<path d="M14.7686 79.3179C14.7686 79.3179 19.6592 82.3838 37.5189 83.7364C37.5189 83.7364 37.4499 94.8225 37.4287 97.724C37.4287 98.1006 37.1052 98.4029 36.7286 98.3923C24.2899 98.0263 17.7549 95.4219 15.596 94.3663C15.0921 94.1223 14.7739 93.6078 14.7739 93.0508V79.3232L14.7686 79.3179Z" fill="#F2B705"/>
<path d="M16.8156 73.9927C19.4254 74.9262 24.8676 76.3902 34.9618 77.3132C36.4099 77.4458 37.5132 78.6605 37.5079 80.1086C37.4814 84.9939 37.4283 95.104 37.423 95.104C21.2607 94.7433 14.7734 90.6165 14.7734 90.6165V75.4355C14.7734 74.3746 15.8184 73.632 16.8156 73.9874V73.9927Z" fill="#FFEC5C"/>
<path d="M18.6989 76.8318C21.3139 77.6327 25.7378 78.6671 32.5857 79.3514C34.3786 79.5317 35.7471 81.0381 35.7365 82.8416C35.7153 86.2258 35.6781 91.0687 35.6781 91.0687C22.0194 90.7663 15.5693 87.0214 15.5693 87.0214V79.1551C15.5693 77.5214 17.1447 76.3491 18.7042 76.8318H18.6989Z" fill="#9AC6EF"/>
<path d="M14.7686 75.4355C14.7686 74.3746 15.8135 73.632 16.8107 73.9874C18.6301 74.6398 21.8286 75.5468 27.0163 76.3531" stroke="white" stroke-width="0.530435" stroke-miterlimit="10"/>
<path d="M14.7841 91.6392L13.999 91.9309C13.999 91.9309 14.1635 92.3924 14.8 92.2969L14.7841 91.6392Z" fill="#A22022"/>
</svg>
