<svg width="122" height="122" viewBox="0 0 122 122" fill="none" xmlns="http://www.w3.org/2000/svg">
<path d="M102.162 58.91C107.137 53.4996 110.145 46.4925 110.145 38.833C110.145 21.6894 95.1014 7.79199 76.5415 7.79199C57.9816 7.79199 42.9385 21.6894 42.9385 38.833C42.9385 55.9767 57.9816 69.8741 76.5415 69.8741C84.4662 69.8741 91.7491 67.3333 97.4937 63.0898L106.904 69.1474C107.227 69.3543 107.614 68.9989 107.429 68.6594L102.156 58.9047L102.162 58.91Z" fill="#FFEC5C"/>
<path d="M37.0611 49.585C18.5011 49.585 3.45801 58.369 3.45801 69.2057C3.45801 74.1547 6.60349 78.6687 11.7805 82.1218L6.78383 91.3673C6.43905 92.0038 7.17105 92.6828 7.78105 92.2903L18.3367 85.4954C23.6888 87.5959 30.1336 88.8265 37.0664 88.8265C55.6263 88.8265 70.6694 80.0425 70.6694 69.2057C70.6694 58.369 55.6263 49.585 37.0664 49.585H37.0611Z" fill="#F06A8A"/>
<path d="M97.2178 75.1362H53.1174C48.8209 75.1362 45.3359 78.6211 45.3359 82.9176V95.9398C45.3359 100.236 48.8209 103.721 53.1174 103.721H80.2598L84.185 109.641C84.5563 110.203 85.3997 110.145 85.6967 109.54L88.5345 103.716H97.2125C101.509 103.716 104.994 100.231 104.994 95.9345V82.9123C104.994 78.6158 101.509 75.1309 97.2125 75.1309L97.2178 75.1362Z" fill="#D6B9FF"/>
</svg>
