<svg width="122" height="122" viewBox="0 0 122 122" fill="none" xmlns="http://www.w3.org/2000/svg">
<path d="M80.8004 51.7406C74.52 56.4933 68.245 66.6936 61.9647 75.345C58.4691 73.0429 54.9682 70.2634 51.4727 65.7918C57.753 61.0392 64.028 50.8389 70.3084 42.1875C73.804 44.4896 77.3048 47.2691 80.8004 51.7406Z" fill="#D9DB64"/>
<path d="M68.2392 55.7613C69.6395 56.6366 69.8358 58.684 68.6741 60.3125C67.5125 61.9462 65.4332 62.6358 64.0275 61.7659C62.6218 60.8907 62.4309 58.8432 63.5925 57.2147C64.7542 55.581 66.8335 54.8914 68.2392 55.7613Z" fill="#475A25"/>
<path d="M53.8808 68.6136C53.0799 67.749 52.2736 66.8154 51.4727 65.7864C52.1357 65.2825 52.804 64.7202 53.4671 64.0996C54.7985 65.5318 54.9788 67.5103 53.8808 68.6083V68.6136Z" fill="#475A25"/>
<path d="M72.7161 43.8584C71.9151 43.2643 71.1089 42.7126 70.3079 42.1875C69.6449 43.1052 68.9765 44.0334 68.3135 44.9776C69.6449 45.7838 71.6128 45.2693 72.7161 43.8584Z" fill="#475A25"/>
<path d="M78.3974 48.9136C79.1984 49.7782 80.0046 50.7117 80.8056 51.7408C80.1426 52.2447 79.4742 52.807 78.8112 53.4276C77.4798 51.9954 77.2994 50.0169 78.3974 48.9189V48.9136Z" fill="#475A25"/>
<path d="M59.5625 73.6689C60.3635 74.263 61.1697 74.8146 61.9707 75.3397C62.6337 74.4221 63.3021 73.4938 63.9651 72.5497C62.6337 71.7434 60.6658 72.2579 59.5625 73.6689Z" fill="#475A25"/>
<path d="M74.0697 92.2868C75.6822 92.3239 77.2682 92.2284 78.8064 92.011L79.0929 97.4691L88.4763 97.676L90.1737 87.8099C95.7591 84.1711 99.6525 78.6016 100.597 72.178C108.527 72.422 105.233 66.0144 105.111 67.0328C105.265 69.5577 101.843 69.8653 100.814 68.6135C100.735 65.4362 99.9336 62.4074 98.5492 59.6544C98.2999 59.1611 98.0347 58.6731 97.7483 58.1957C97.7483 58.1904 97.7377 58.1798 97.7323 58.1745C97.4459 57.7024 97.1436 57.2357 96.8253 56.7848C96.82 56.7742 96.8147 56.7689 96.8041 56.7583C96.5707 56.4241 96.3214 56.0952 96.0721 55.777C96.0668 55.7664 96.0562 55.7557 96.0509 55.7504C95.966 55.6444 95.8811 55.5383 95.7963 55.4322C95.7963 55.4322 95.791 55.4269 95.7857 55.4216C95.5257 55.1033 95.2605 54.7957 94.9794 54.4933C94.9635 54.4721 94.9476 54.4562 94.9263 54.435C94.6558 54.1432 94.38 53.8515 94.0936 53.5704C94.0777 53.5544 94.0617 53.5385 94.0458 53.5226C93.9557 53.4324 93.8655 53.3476 93.7753 53.2627C93.7488 53.2415 93.7276 53.215 93.701 53.1937C93.4252 52.9285 93.1388 52.6739 92.847 52.4193C92.8152 52.3928 92.7781 52.361 92.7463 52.3344C92.6561 52.2602 92.5659 52.1806 92.4757 52.1064C92.4439 52.0798 92.4121 52.0586 92.3856 52.0321C92.2105 51.8889 92.0355 51.7457 91.8604 51.6077C91.8286 51.5812 91.7968 51.56 91.765 51.5335C91.6748 51.4645 91.5899 51.3956 91.4997 51.3319C91.452 51.2948 91.4043 51.2577 91.3565 51.2258C91.2663 51.1622 91.1815 51.0932 91.0913 51.0296C91.0542 51.0031 91.0223 50.9818 90.9852 50.9553C90.8208 50.8386 90.651 50.7166 90.4813 50.6052C90.423 50.5681 90.3646 50.5257 90.3116 50.4885C90.2267 50.4302 90.1418 50.3771 90.057 50.3188C89.9933 50.2764 89.9297 50.2392 89.866 50.1968C89.7387 50.1172 89.6114 50.0324 89.4841 49.9528C89.3992 49.8997 89.3143 49.8467 89.2348 49.799C89.1552 49.7512 89.0703 49.7035 88.9908 49.6557C88.9165 49.6133 88.8423 49.5709 88.768 49.5284C88.6884 49.4807 88.6089 49.4383 88.524 49.3905C88.4338 49.3428 88.349 49.2951 88.2588 49.242C88.1421 49.1784 88.0307 49.1147 87.914 49.0564C87.8238 49.0086 87.7283 48.9609 87.6329 48.9078C87.5586 48.8707 87.479 48.8283 87.3995 48.7911C87.3093 48.7487 87.2191 48.701 87.129 48.6585C87.0547 48.6214 86.9857 48.5896 86.9115 48.5524C86.763 48.4835 86.6144 48.4092 86.4659 48.3456C86.4023 48.3137 86.3333 48.2872 86.2643 48.2554C86.1636 48.2077 86.0575 48.1652 85.9567 48.1175C85.8824 48.0857 85.8135 48.0538 85.7392 48.022C85.6278 47.9743 85.5111 47.9265 85.3997 47.8788C85.3414 47.8576 85.2883 47.8311 85.23 47.8098C85.0709 47.7462 84.9064 47.6825 84.7473 47.6242C84.6837 47.5977 84.6147 47.5764 84.551 47.5499C84.4396 47.5075 84.323 47.4651 84.2116 47.4279C84.1479 47.4067 84.079 47.3802 84.0153 47.359C83.8456 47.3006 83.6811 47.2423 83.5114 47.1892C83.469 47.1786 83.4318 47.1627 83.3894 47.1521C83.2515 47.1097 83.1083 47.0619 82.9703 47.0195C82.9067 46.9983 82.843 46.9824 82.7741 46.9611C82.6415 46.924 82.5142 46.8869 82.3816 46.8497C82.3285 46.8338 82.2755 46.8179 82.2224 46.8073C82.0474 46.7596 81.867 46.7118 81.6867 46.6641C81.6337 46.6535 81.5806 46.6376 81.5276 46.627C81.3896 46.5951 81.2517 46.558 81.1138 46.5262C81.0502 46.5103 80.9918 46.4997 80.9282 46.4837C80.7637 46.4466 80.6046 46.4095 80.4402 46.3777C80.4136 46.3724 80.3871 46.3671 80.3606 46.3617C80.175 46.3246 79.984 46.2875 79.7983 46.2557C79.74 46.2451 79.6816 46.2344 79.6286 46.2238C79.4854 46.1973 79.3422 46.1761 79.1937 46.1496C79.1406 46.139 79.0876 46.1337 79.0292 46.1231C78.8383 46.0912 78.6473 46.0647 78.4563 46.0382C78.4245 46.0382 78.3874 46.0276 78.3556 46.0276C78.1911 46.0064 78.0267 45.9851 77.8623 45.9692C77.8039 45.9639 77.7456 45.9533 77.6872 45.948C77.5281 45.9321 77.369 45.9162 77.2045 45.9003C77.1621 45.9003 77.125 45.895 77.0825 45.8897C76.8863 45.8737 76.69 45.8578 76.4884 45.8419C76.4407 45.8419 76.3877 45.8366 76.3399 45.8313C76.1861 45.8207 76.027 45.8101 75.8731 45.8048C75.8148 45.8048 75.7564 45.7995 75.7034 45.7942L68.7706 45.5024L73.7302 49.1571L67.3756 53.5014L73.7143 57.294L66.8186 61.1821L73.7938 66.322L66.511 70.2048L73.1944 73.4511L66.1768 77.6733L72.9186 80.8665L66.1396 84.3727L74.0697 92.2921V92.2868Z" fill="#F57F4D"/>
<path d="M83.5383 48.5951L72.6379 48.3564L73.7306 49.1521L68.5801 52.6901L83.4429 53.019C84.6629 53.0455 85.676 52.0801 85.7025 50.8601C85.729 49.6401 84.7636 48.627 83.5436 48.6004L83.5383 48.5951Z" fill="#A95C44"/>
<path d="M84.6401 51.3004L71.0239 50.998L68.5732 52.6848L84.5977 53.0402C84.5977 53.0402 85.7275 51.6611 85.5631 51.5285C85.3191 51.3269 84.969 51.3057 84.6348 51.3004H84.6401Z" fill="#723D2B"/>
<path d="M49.9827 90.8755C49.1128 90.8278 48.2535 90.7482 47.4048 90.6262L47.007 95.9889H37.6183L36.202 86.526C33.6188 84.871 18.9311 73.3659 18.8621 73.35C18.8568 73.35 18.8515 73.35 18.8462 73.35L18.6765 68.3533L18.459 61.9138L24.7659 61.5054L26.2458 61.4099L26.2564 61.4523C26.4473 60.837 26.6648 60.2323 26.9141 59.6382C27.0361 59.3412 27.1687 59.0494 27.3013 58.7577C27.3703 58.6145 27.4392 58.466 27.5082 58.3228C27.7628 57.8082 28.0386 57.299 28.3357 56.8004C28.4789 56.5564 28.6274 56.3177 28.7812 56.079C28.8926 55.904 29.0093 55.7342 29.126 55.5592C28.638 52.1856 26.0177 49.8464 25.5509 47.3746C25.1743 45.3642 31.025 47.5549 35.4117 49.3001C39.0345 46.7964 43.4106 45.1096 48.1952 44.5739C48.3755 44.5527 48.5612 44.5368 48.7415 44.5155C49.1075 44.4837 49.4788 44.4519 49.8501 44.4307L55.2977 47.9793L48.0679 52.854L54.4596 56.27L48.2959 60.3596L53.8443 65.908L47.9618 69.0481L53.8443 72.6922L48.7999 76.5061L53.229 79.2537L49.4205 82.675L53.7382 87.9422L49.9774 90.8702" fill="#F57F4D"/>
<path d="M43.0387 47.0297C41.8187 47.0297 40.8267 48.0216 40.8321 49.2416C40.8321 50.4616 41.824 51.4535 43.044 51.4482H50.1995L55.3076 47.9845L53.8118 47.0244H43.0387V47.0297Z" fill="#A95C44"/>
<path d="M43.0399 49.7084C42.3238 49.7084 41.6873 50.0532 41.2842 50.5783C41.6873 51.1088 42.3238 51.4483 43.0399 51.4483H50.1743L52.7734 49.7031H43.0399V49.7084Z" fill="#723D2B"/>
<path d="M18.846 73.35C20.1191 73.35 20.6972 69.3929 20.6972 65.717C20.6972 63.2982 20.4904 61.8926 19.4189 61.8926C19.3181 61.8926 19.2173 61.9032 19.1218 61.9138C19.0264 61.9244 18.9362 61.935 18.846 61.935C18.7558 61.935 18.6657 61.9244 18.5702 61.9138C18.4747 61.9032 18.3739 61.8926 18.2731 61.8926C17.207 61.8926 16.9948 63.2929 17.0001 65.717C17.0001 69.3929 17.5783 73.35 18.8513 73.35H18.846Z" fill="#F3A589"/>
<path d="M19.1797 65.5209C19.1797 66.2105 19.3282 66.7675 19.5139 66.7675C19.6995 66.7675 19.848 66.2105 19.848 65.5209C19.848 64.8314 19.6995 64.2744 19.5139 64.2744C19.3282 64.2744 19.1797 64.8314 19.1797 65.5209Z" fill="#B97F67"/>
<path d="M17.4258 65.5209C17.4258 66.2105 17.5743 66.7675 17.76 66.7675C17.9456 66.7675 18.0941 66.2105 18.0941 65.5209C18.0941 64.8314 17.9456 64.2744 17.76 64.2744C17.5743 64.2744 17.4258 64.8314 17.4258 65.5209Z" fill="#B97F67"/>
<path d="M61.3667 90.6211C64.0032 90.6211 66.1406 88.4837 66.1406 85.8472C66.1406 83.2106 64.0032 81.0732 61.3667 81.0732C58.7301 81.0732 56.5928 83.2106 56.5928 85.8472C56.5928 88.4837 58.7301 90.6211 61.3667 90.6211Z" fill="#FFEC5C"/>
<path d="M54.4546 81.1318C57.0911 81.1318 59.2285 78.9945 59.2285 76.3579C59.2285 73.7213 57.0911 71.584 54.4546 71.584C51.818 71.584 49.6807 73.7213 49.6807 76.3579C49.6807 78.9945 51.818 81.1318 54.4546 81.1318Z" fill="#FFEC5C"/>
<path d="M65.646 74.9892C68.2825 74.9892 70.4199 72.8519 70.4199 70.2153C70.4199 67.5788 68.2825 65.4414 65.646 65.4414C63.0094 65.4414 60.8721 67.5788 60.8721 70.2153C60.8721 72.8519 63.0094 74.9892 65.646 74.9892Z" fill="#FFEC5C"/>
<path d="M90.6843 27.7701C81.2744 28.0035 71.8698 35.228 62.4599 37.1959C61.1232 32.7243 59.7918 28.1467 58.4551 23.4258C67.865 23.1924 77.2696 15.9679 86.6795 14C88.0162 18.4716 89.3476 23.0492 90.6843 27.7701Z" fill="#D9DB64"/>
<path d="M77.7193 24.2002C78.2551 25.8764 77.2791 27.8337 75.5339 28.6134C73.7941 29.3985 71.9482 28.6771 71.4124 26.9956C70.8767 25.3194 71.8527 23.3621 73.5978 22.5824C75.3377 21.7973 77.1836 22.5187 77.7193 24.2002Z" fill="#475A25"/>
<path d="M59.3727 26.6559C59.0651 25.5898 58.7627 24.513 58.4551 23.4309C59.4523 23.4044 60.4442 23.3036 61.4414 23.1392C61.9506 24.8419 61.0224 26.5286 59.3727 26.6612V26.6559Z" fill="#475A25"/>
<path d="M87.5964 17.0973C87.2887 16.0577 86.9864 15.0286 86.6787 14.0049C85.6815 14.2118 84.6896 14.4823 83.6924 14.7899C84.2016 16.4343 85.9467 17.3678 87.5964 17.0973Z" fill="#475A25"/>
<path d="M89.76 24.5453C90.0677 25.6115 90.37 26.6883 90.6777 27.7704C89.6804 27.7969 88.6885 27.8977 87.6913 28.0621C87.1821 26.3594 88.1104 24.6726 89.76 24.54V24.5453Z" fill="#475A25"/>
<path d="M61.5352 34.1039C61.8428 35.1436 62.1452 36.1726 62.4528 37.1964C63.45 36.9895 64.4419 36.719 65.4392 36.4113C64.9299 34.767 63.1848 33.8334 61.5352 34.1039Z" fill="#475A25"/>
</svg>
