<svg width="122" height="122" viewBox="0 0 122 122" fill="none" xmlns="http://www.w3.org/2000/svg">
<path d="M49.4047 76.1335L86.6041 63.7001L81.8514 51.6646L33.7197 58.9792L41.6285 70.0176L49.4047 76.1335Z" fill="#FFEC5C"/>
<path d="M86.5827 77.0084L89.2243 81.3156C90.3647 83.1774 92.3856 84.3231 94.5657 84.3443C98.0719 84.3815 100.889 87.2617 100.846 90.7679L100.814 93.7171L86.397 93.558L83.103 91.1498L83.0765 93.5209L76.8174 93.4519L76.8916 86.6146L76.9235 83.5911L76.9977 76.9023L86.5774 77.0084H86.5827Z" fill="#E0594F"/>
<path d="M94.2148 72.8236C94.1936 72.1234 94.1777 71.3967 93.764 70.0865C93.3555 68.7763 92.9577 68.1663 92.5758 67.5776C92.1833 66.9782 91.7801 66.3576 91.3611 65.0209C90.942 63.6842 90.9208 62.9469 90.9049 62.2308C90.8837 61.5306 90.8678 60.8039 90.454 59.4937C90.0456 58.1836 89.6478 57.5736 89.2659 56.9901C88.8733 56.3907 88.4702 55.7701 88.0512 54.4334C87.6321 53.0967 87.6109 52.3594 87.595 51.6433C87.5738 50.9431 87.5579 50.2164 87.1441 48.9062L66.4678 59.9711L72.1063 78.4939L94.5225 76.4676C94.5225 76.4676 94.236 73.5396 94.2148 72.8236Z" fill="#FFEC5C"/>
<path d="M34.8968 78.7062C40.0703 78.7062 44.2643 74.5122 44.2643 69.3387C44.2643 64.1652 40.0703 59.9712 34.8968 59.9712C29.7233 59.9712 25.5293 64.1652 25.5293 69.3387C25.5293 74.5122 29.7233 78.7062 34.8968 78.7062Z" fill="#FFEC5C"/>
<path d="M24.8556 89.3943L19.9597 90.6515C17.8433 91.1925 16.1565 92.7838 15.4881 94.8631C14.4167 98.2049 10.8415 100.045 7.49978 98.974L4.68848 98.0723L9.09108 84.3393L12.3639 81.8993L10.1095 81.1779L12.0191 75.2158L18.5328 77.3057L21.4131 78.2287L27.7836 80.2709L24.8556 89.3943Z" fill="#E0594F"/>
<path d="M26.6007 97.9186C27.2743 98.1043 27.9745 98.3005 29.3483 98.2952C30.7221 98.2899 31.417 98.0884 32.096 97.8974C32.7855 97.7011 33.4963 97.4943 34.8967 97.489C36.297 97.4837 37.0078 97.6799 37.6973 97.8709C38.371 98.0565 39.0712 98.2528 40.445 98.2475C41.8188 98.2475 42.5137 98.0406 43.1927 97.8497C43.8822 97.6534 44.593 97.4465 45.9933 97.4412C47.3937 97.4359 48.1045 97.6322 48.794 97.8231C49.4677 98.0088 50.1679 98.2051 51.5417 98.1998C52.9155 98.1998 53.6104 97.9929 54.2893 97.8019C54.9789 97.6057 55.6897 97.3988 57.09 97.3935C58.4904 97.3882 59.2012 97.5845 59.8907 97.7754C60.5644 97.9611 61.2646 98.1573 62.6384 98.152C64.0122 98.1467 64.7071 97.9451 65.3807 97.7542C65.386 97.7542 65.3967 97.7542 65.402 97.7489C65.5027 97.7224 65.6035 97.6905 65.7043 97.6534C66.5583 97.3511 67.285 96.5024 67.8579 95.3832C70.0274 91.145 68.5952 85.9361 64.7389 83.1407L53.796 75.2054L27.704 75.1152L23.0361 97.1336C23.0361 97.1336 25.9164 97.7224 26.606 97.9133L26.6007 97.9186Z" fill="#FFEC5C"/>
<path d="M36.2861 71.3915L44.179 68.0869L53.7905 68.1347L66.7649 85.1086L57.1587 88.4132L43.6433 86.7105L36.2861 71.3915Z" fill="#FFEC5C"/>
<path d="M27.6982 75.1255L59.1477 87.2459" stroke="white" stroke-width="0.556957" stroke-miterlimit="10"/>
<path d="M51.1755 31.1576C53.0738 31.1576 54.6127 29.6187 54.6127 27.7204C54.6127 25.8221 53.0738 24.2832 51.1755 24.2832C49.2772 24.2832 47.7383 25.8221 47.7383 27.7204C47.7383 29.6187 49.2772 31.1576 51.1755 31.1576Z" fill="#FFEC5C"/>
<path d="M54.5544 35.5551C56.4527 35.5551 57.9916 34.0162 57.9916 32.1179C57.9916 30.2196 56.4527 28.6807 54.5544 28.6807C52.6561 28.6807 51.1172 30.2196 51.1172 32.1179C51.1172 34.0162 52.6561 35.5551 54.5544 35.5551Z" fill="#FFEC5C"/>
<path d="M39.3419 22.395L51.6745 22.4534C51.6639 24.7342 50.4121 26.7234 48.5609 27.7789L48.5397 31.7254L42.8004 31.6988L42.8163 27.9752C40.7476 26.9727 39.326 24.8456 39.3419 22.395Z" fill="#EBB79E"/>
<path d="M88.6934 48.8638L84.6568 51.4576L84.625 57.8599L92.1094 57.8971C92.3269 57.9713 92.555 57.966 92.7566 57.8971H92.8043V57.8758C93.0642 57.7751 93.287 57.5682 93.3931 57.2817C93.5841 56.7778 93.3507 56.2209 92.868 55.9928C93.1862 55.9185 93.4674 55.6904 93.5894 55.3563C93.7697 54.8789 93.5681 54.3484 93.1332 54.1044C93.3878 53.9984 93.6053 53.7968 93.706 53.5157C93.9076 52.9852 93.6371 52.3964 93.1067 52.1949C93.096 52.1949 93.0907 52.1896 93.0801 52.1843C93.3931 52.1047 93.6636 51.8766 93.7856 51.5531C93.9872 51.0226 93.7167 50.4338 93.1862 50.2323C92.9051 50.1262 92.6027 50.1527 92.3534 50.2853L89.2769 50.7786L89.7013 49.6488C89.7808 49.4419 89.749 49.2032 89.6217 49.0229C89.4095 48.7152 88.9852 48.641 88.6775 48.8531L88.6934 48.8638Z" fill="#EBB79E"/>
<path d="M30.3055 59.076L59.5215 59.2188L59.6022 42.7118L30.3862 42.569L30.3055 59.076Z" fill="#E0594F"/>
<path d="M66.7232 50.9114C66.7815 39.1145 57.2655 29.5083 45.4739 29.45C33.6824 29.3916 24.0709 38.9076 24.0125 50.6992C23.5882 55.0169 25.3492 59.2604 28.7016 62.0028L35.8094 67.8163L40.3871 62.2096L32.4836 55.7595L33.5869 49.1132L57.5095 46.0685L59 50.8689C59 50.8689 59.6259 58.1094 69.2852 58.1571L84.62 58.2314L84.6572 50.9962L66.7179 50.9114H66.7232Z" fill="#E0594F"/>
<path d="M44.8686 63.0848L40.1 62.5649L36.0527 67.5245L41.8504 72.256C41.9724 72.4522 42.1527 72.5902 42.349 72.6644L42.3861 72.6962L42.3967 72.6803C42.662 72.7652 42.9643 72.744 43.2295 72.5902C43.691 72.3196 43.8607 71.7362 43.6326 71.2588C43.9297 71.402 44.2904 71.3967 44.5927 71.2163C45.033 70.9564 45.208 70.4207 45.0277 69.9592C45.2929 70.0388 45.59 70.0123 45.8446 69.8637C46.3326 69.5773 46.497 68.9514 46.2106 68.4634C46.2106 68.4528 46.1999 68.4475 46.1946 68.4422C46.4864 68.5748 46.8418 68.5695 47.1388 68.3944C47.6268 68.108 47.7913 67.4821 47.5048 66.9941C47.351 66.7342 47.1017 66.5644 46.8259 66.5114L44.1206 64.9625L45.1656 64.3472C45.3566 64.2358 45.4839 64.0342 45.4998 63.8115C45.5263 63.4402 45.2452 63.1113 44.8739 63.0848H44.8686Z" fill="#EBB79E"/>
<path d="M36.0373 26.6543L35.5546 27.3067C34.7908 29.6884 32.4357 31.1895 30.0911 32.0647C27.7466 32.9346 25.2218 33.4014 23.0841 34.701C21.4557 35.6929 20.1084 37.1516 19.2597 38.8596C18.9308 39.5173 18.6709 40.26 18.8247 40.9813C19.1165 42.3605 20.7714 43.0023 22.1771 42.9386C23.588 42.875 26.0705 43.9465 27.2798 43.3153C29.1629 42.3286 37.4324 33.9743 38.663 32.9665C40.9332 31.0993 42.8958 29.3595 42.9489 28.967L37.5862 29.0041C37.5862 29.0041 36.0373 26.6384 36.0373 26.6649V26.6543Z" fill="#FFEC5C"/>
<path d="M34.5515 33.1098C36.4498 33.1098 37.9887 31.5709 37.9887 29.6726C37.9887 27.7742 36.4498 26.2354 34.5515 26.2354C32.6532 26.2354 31.1143 27.7742 31.1143 29.6726C31.1143 31.5709 32.6532 33.1098 34.5515 33.1098Z" fill="#FFEC5C"/>
<path d="M44.6403 23.8803C46.5387 23.8803 48.0776 22.3414 48.0776 20.4431C48.0776 18.5448 46.5387 17.0059 44.6403 17.0059C42.742 17.0059 41.2031 18.5448 41.2031 20.4431C41.2031 22.3414 42.742 23.8803 44.6403 23.8803Z" fill="#FFEC5C"/>
<path d="M41.4206 26.9408C43.3189 26.9408 44.8578 25.4019 44.8578 23.5036C44.8578 21.6053 43.3189 20.0664 41.4206 20.0664C39.5223 20.0664 37.9834 21.6053 37.9834 23.5036C37.9834 25.4019 39.5223 26.9408 41.4206 26.9408Z" fill="#FFEC5C"/>
<path d="M30.2819 36.7436C32.1803 36.7436 33.7192 35.2047 33.7192 33.3064C33.7192 31.408 32.1803 29.8691 30.2819 29.8691C28.3836 29.8691 26.8447 31.408 26.8447 33.3064C26.8447 35.2047 28.3836 36.7436 30.2819 36.7436Z" fill="#FFEC5C"/>
<path d="M25.3386 39.1196C27.2369 39.1196 28.7758 37.5807 28.7758 35.6823C28.7758 33.784 27.2369 32.2451 25.3386 32.2451C23.4403 32.2451 21.9014 33.784 21.9014 35.6823C21.9014 37.5807 23.4403 39.1196 25.3386 39.1196Z" fill="#FFEC5C"/>
<path d="M21.5827 42.0849C23.481 42.0849 25.0199 40.546 25.0199 38.6477C25.0199 36.7493 23.481 35.2104 21.5827 35.2104C19.6844 35.2104 18.1455 36.7493 18.1455 38.6477C18.1455 40.546 19.6844 42.0849 21.5827 42.0849Z" fill="#FFEC5C"/>
<path d="M21.1052 45.6811C23.0035 45.6811 24.5424 44.1422 24.5424 42.2439C24.5424 40.3455 23.0035 38.8066 21.1052 38.8066C19.2069 38.8066 17.668 40.3455 17.668 42.2439C17.668 44.1422 19.2069 45.6811 21.1052 45.6811Z" fill="#FFEC5C"/>
<path d="M26.4841 44.5727C28.3824 44.5727 29.9213 43.0338 29.9213 41.1355C29.9213 39.2371 28.3824 37.6982 26.4841 37.6982C24.5858 37.6982 23.0469 39.2371 23.0469 41.1355C23.0469 43.0338 24.5858 44.5727 26.4841 44.5727Z" fill="#FFEC5C"/>
<path d="M30.8337 41.0131C32.732 41.0131 34.2709 39.4742 34.2709 37.5759C34.2709 35.6776 32.732 34.1387 30.8337 34.1387C28.9354 34.1387 27.3965 35.6776 27.3965 37.5759C27.3965 39.4742 28.9354 41.0131 30.8337 41.0131Z" fill="#FFEC5C"/>
<path d="M35.3415 36.9819C37.2398 36.9819 38.7787 35.443 38.7787 33.5446C38.7787 31.6463 37.2398 30.1074 35.3415 30.1074C33.4432 30.1074 31.9043 31.6463 31.9043 33.5446C31.9043 35.443 33.4432 36.9819 35.3415 36.9819Z" fill="#FFEC5C"/>
<path d="M39.4157 33.2636C41.3141 33.2636 42.853 31.7247 42.853 29.8264C42.853 27.9281 41.3141 26.3892 39.4157 26.3892C37.5174 26.3892 35.9785 27.9281 35.9785 29.8264C35.9785 31.7247 37.5174 33.2636 39.4157 33.2636Z" fill="#FFEC5C"/>
<path d="M49.696 23.8803C51.5943 23.8803 53.1332 22.3414 53.1332 20.4431C53.1332 18.5448 51.5943 17.0059 49.696 17.0059C47.7977 17.0059 46.2588 18.5448 46.2588 20.4431C46.2588 22.3414 47.7977 23.8803 49.696 23.8803Z" fill="#FFEC5C"/>
<path d="M42.0681 31.1576C43.9664 31.1576 45.5053 29.6187 45.5053 27.7204C45.5053 25.8221 43.9664 24.2832 42.0681 24.2832C40.1698 24.2832 38.6309 25.8221 38.6309 27.7204C38.6309 29.6187 40.1698 31.1576 42.0681 31.1576Z" fill="#FFEC5C"/>
<path d="M37.7077 29.2695C39.606 29.2695 41.1449 27.7306 41.1449 25.8322C41.1449 23.9339 39.606 22.395 37.7077 22.395C35.8094 22.395 34.2705 23.9339 34.2705 25.8322C34.2705 27.7306 35.8094 29.2695 37.7077 29.2695Z" fill="#FFEC5C"/>
<path d="M75.9482 93.7435L69.6254 95.8653L65.9336 84.8747C67.2332 84.4397 68.6388 85.1399 69.0738 86.4394L69.4822 87.6541C69.8005 88.6089 70.6704 89.2773 71.6782 89.3409L74.5319 89.5213L75.9482 93.7382V93.7435Z" fill="#E0594F"/>
<path d="M104.623 81.8885L94.9322 81.5702C90.6357 81.427 86.3657 82.2757 82.4458 84.0421L73.9854 87.8559L76.2132 95.3403L97.4518 88.6462L104.618 81.8938L104.623 81.8885Z" fill="black"/>
<path d="M81.9737 106.554L76.1708 109.842L70.458 99.7536C71.6515 99.08 73.1632 99.499 73.8422 100.692L74.4734 101.812C74.972 102.687 75.948 103.18 76.9505 103.048L79.7884 102.682L81.9791 106.554H81.9737Z" fill="#E0594F"/>
<path d="M98.3061 84.4879C96.6246 85.2941 79.3643 99.8811 79.3643 101.748L82.7431 108.087L109.663 90.2219C111.769 89.1557 113.105 87.0021 113.126 84.6364L113.19 77.3535L98.3061 84.4879Z" fill="black"/>
<path d="M106.697 55.8652H95.3828C95.3828 58.4007 96.2315 60.5437 98.5283 61.2651V63.721H103.435V61.2651C105.732 60.5437 106.697 58.4007 106.697 55.8652Z" fill="#6C3F1F"/>
<path d="M101.043 50.2109C97.9183 50.2109 95.3828 52.7464 95.3828 55.8707H106.697C106.697 52.7464 104.162 50.2109 101.037 50.2109H101.043Z" fill="black"/>
<path d="M76.9872 65.9172L77.8571 68.1928L75.9423 70.8237L72.8657 68.5853C72.7543 68.5482 72.6642 68.4792 72.6005 68.3944L72.5793 68.3784H72.5846C72.5103 68.2511 72.4785 68.0973 72.521 67.9488C72.5952 67.6836 72.8604 67.5297 73.1204 67.5775C73.0143 67.4502 72.9665 67.2751 73.0143 67.1001C73.0832 66.8508 73.3272 66.697 73.5765 66.7235C73.5023 66.6015 73.4757 66.453 73.5182 66.3097C73.5977 66.0339 73.8842 65.8695 74.16 65.949H74.1706C74.0645 65.8217 74.0221 65.6467 74.0698 65.477C74.1494 65.2011 74.4358 65.0367 74.7117 65.1163C74.8602 65.1587 74.9769 65.2595 75.0352 65.3868L76.1491 66.5166L76.3136 65.9225C76.3454 65.8111 76.425 65.7263 76.5363 65.6891C76.7167 65.6255 76.913 65.7263 76.9713 65.9066L76.9872 65.9172Z" fill="#6C3F1F"/>
<path d="M106.989 86.652L108.316 84.6099H111.567V88.4131C111.604 88.5245 111.604 88.6359 111.567 88.742V88.7685H111.557C111.503 88.9011 111.397 89.0125 111.254 89.0655C111 89.161 110.713 89.039 110.602 88.795C110.565 88.9594 110.448 89.0973 110.278 89.161C110.034 89.2512 109.769 89.1451 109.642 88.9276C109.589 89.0549 109.483 89.1663 109.339 89.2193C109.069 89.3201 108.772 89.1822 108.671 88.9117C108.671 88.9117 108.671 88.9011 108.671 88.8958C108.629 89.0549 108.512 89.1928 108.347 89.2512C108.077 89.352 107.78 89.214 107.679 88.9435C107.626 88.8003 107.642 88.6465 107.706 88.5192L107.965 86.9544L107.387 87.1666C107.281 87.2037 107.159 87.1931 107.069 87.1241C106.915 87.0127 106.878 86.8006 106.984 86.6414L106.989 86.652Z" fill="#6C3F1F"/>
<path d="M104.464 84.3391H97.6161C90.556 84.3391 85.3842 77.6981 87.1082 70.8554C88.3229 66.0391 92.6512 62.6655 97.6161 62.6655H104.464C109.317 62.6655 113.577 65.8906 114.892 70.5584C116.844 77.4753 111.651 84.3391 104.464 84.3391Z" fill="#E0594F"/>
<path d="M90.2856 65.5513L84.3182 71.0784L78.3455 67.4396L75.5342 71.3436L83.0557 75.9107C84.3129 76.6745 85.9201 76.5366 87.0287 75.5659L91.8557 71.3436" fill="#E0594F"/>
<path d="M112.273 70.293H107.722V84.6041H112.273V70.293Z" fill="#E0594F"/>
</svg>
