<svg width="65" height="60" viewBox="0 0 65 60" fill="none" xmlns="http://www.w3.org/2000/svg">
<path opacity="0.16" d="M38.5059 8.02039C40.7533 4.87966 45.1347 4.13611 48.1387 6.56318C49.2493 7.46055 50.3433 8.37816 51.42 9.31556C54.3548 11.8706 54.3585 16.3553 51.6049 19.1045L18.6783 51.9778C16.9666 53.6867 14.2104 53.6889 12.3584 52.1332C10.4924 50.5656 10.026 47.8218 11.4441 45.8398L38.5059 8.02039Z" fill="#202124"/>
<path d="M37.4268 24.5679V22.4585M31.8871 26.7625L30.3955 25.271M31.8871 37.9272L30.3955 39.4189M43.0518 26.7625L44.5434 25.271M29.6924 32.3022H27.583M47.08 42.4126L43.5759 48.9199C43.1756 49.6634 42.9754 50.0351 42.7346 50.1291C42.5257 50.2107 42.2903 50.1876 42.1011 50.0671C41.883 49.9282 41.7589 49.5247 41.5102 48.7178L36.6466 32.9284C36.4435 32.2692 36.342 31.9396 36.4237 31.717C36.4948 31.5231 36.6476 31.3703 36.8415 31.2992C37.0641 31.2175 37.3937 31.319 38.0529 31.522L53.8422 36.3857C54.6491 36.6343 55.0526 36.7587 55.1915 36.9766C55.3121 37.1659 55.3351 37.4012 55.2535 37.6101C55.1596 37.851 54.7878 38.0511 54.0444 38.4515L47.5371 41.9555C47.4266 42.0149 47.3713 42.0446 47.3231 42.0829C47.2801 42.1167 47.2413 42.1556 47.2074 42.1986C47.1691 42.2468 47.1394 42.3021 47.08 42.4126Z" stroke="#202124" stroke-width="2.8125" stroke-linecap="round" stroke-linejoin="round"/>
</svg>
