<svg width="122" height="122" viewBox="0 0 122 122" fill="none" xmlns="http://www.w3.org/2000/svg">
<path d="M99.4829 6.15283H40.4189V90.5821H99.4829V6.15283Z" fill="#DCF0FF"/>
<path d="M94.3852 12.7725H45.5215C44.9239 12.7725 44.4395 13.2569 44.4395 13.8545V17.5145C44.4395 18.1122 44.9239 18.5966 45.5215 18.5966H94.3852C94.9828 18.5966 95.4673 18.1122 95.4673 17.5145V13.8545C95.4673 13.2569 94.9828 12.7725 94.3852 12.7725Z" fill="#2B91AD"/>
<path d="M95.1765 24.124H44.7322C44.571 24.124 44.4404 24.2546 44.4404 24.4158V25.4448C44.4404 25.6059 44.571 25.7365 44.7322 25.7365H95.1765C95.3376 25.7365 95.4683 25.6059 95.4683 25.4448V24.4158C95.4683 24.2546 95.3376 24.124 95.1765 24.124Z" fill="#2B91AD"/>
<path d="M95.1765 30.8179H44.7322C44.571 30.8179 44.4404 30.9485 44.4404 31.1096V32.1387C44.4404 32.2998 44.571 32.4304 44.7322 32.4304H95.1765C95.3376 32.4304 95.4683 32.2998 95.4683 32.1387V31.1096C95.4683 30.9485 95.3376 30.8179 95.1765 30.8179Z" fill="#2B91AD"/>
<path d="M95.1765 37.5122H44.7322C44.571 37.5122 44.4404 37.6428 44.4404 37.8039V38.833C44.4404 38.9941 44.571 39.1247 44.7322 39.1247H95.1765C95.3376 39.1247 95.4683 38.9941 95.4683 38.833V37.8039C95.4683 37.6428 95.3376 37.5122 95.1765 37.5122Z" fill="#2B91AD"/>
<path d="M95.1765 44.2061H44.7322C44.571 44.2061 44.4404 44.3367 44.4404 44.4978V45.5268C44.4404 45.688 44.571 45.8186 44.7322 45.8186H95.1765C95.3376 45.8186 95.4683 45.688 95.4683 45.5268V44.4978C95.4683 44.3367 95.3376 44.2061 95.1765 44.2061Z" fill="#2B91AD"/>
<path d="M95.1765 50.9004H44.7322C44.571 50.9004 44.4404 51.031 44.4404 51.1921V52.2212C44.4404 52.3823 44.571 52.5129 44.7322 52.5129H95.1765C95.3376 52.5129 95.4683 52.3823 95.4683 52.2212V51.1921C95.4683 51.031 95.3376 50.9004 95.1765 50.9004Z" fill="#2B91AD"/>
<path d="M95.1765 57.5942H44.7322C44.571 57.5942 44.4404 57.7249 44.4404 57.886V58.915C44.4404 59.0761 44.571 59.2068 44.7322 59.2068H95.1765C95.3376 59.2068 95.4683 59.0761 95.4683 58.915V57.886C95.4683 57.7249 95.3376 57.5942 95.1765 57.5942Z" fill="#2B91AD"/>
<path d="M86.7473 85.9937C90.7871 85.9937 94.062 82.7188 94.062 78.679C94.062 74.6392 90.7871 71.3643 86.7473 71.3643C82.7075 71.3643 79.4326 74.6392 79.4326 78.679C79.4326 82.7188 82.7075 85.9937 86.7473 85.9937Z" fill="#2B91AD"/>
<path d="M56.788 73.0197C55.8385 73.4228 55.1224 74.2131 54.47 74.9876C53.9395 75.6188 53.3932 76.2394 52.8681 76.8706C52.1095 77.783 50.6243 79.4804 51.3457 80.7693C51.9292 81.8143 53.4038 81.5968 54.3692 81.3687C55.7324 81.0451 57.0373 80.4564 58.2891 79.841C59.0582 79.4644 59.8221 79.0666 60.5647 78.6317C61.2012 78.2604 61.8218 77.8678 62.4371 77.4594C63.01 77.0775 63.551 76.5842 64.2035 76.3402L63.7261 75.9795C63.7367 76.4622 63.307 76.9608 63.0842 77.3692C62.6758 78.1384 62.2992 78.9234 61.9279 79.7084C61.2489 81.1406 60.3631 82.5675 60.0183 84.127C59.9547 84.4028 60.1934 84.6627 60.4798 84.5884C61.8377 84.233 62.4583 82.4402 63.8693 82.3288L63.5457 82.1431C63.9223 82.9547 64.0549 84.0792 64.9408 84.5354C66.0175 85.0923 67.0095 84.005 67.943 83.6337C68.3886 83.4586 68.1923 82.7319 67.7415 82.907C67.0837 83.1669 65.9115 84.2808 65.206 83.8193C64.6013 83.4215 64.4846 82.3765 64.1928 81.7612C64.1398 81.6498 63.986 81.565 63.8693 81.5756C63.1479 81.6339 62.6015 81.984 62.0764 82.4614C61.5513 82.9388 61.0315 83.6655 60.2782 83.8617L60.7397 84.3232C61.1216 82.6099 62.1295 80.9815 62.8933 79.4114C63.2275 78.7218 63.5563 78.027 63.9435 77.3639C64.1875 76.9449 64.4793 76.4781 64.474 75.9742C64.474 75.7461 64.2353 75.5233 63.9966 75.6135C63.0895 75.9477 62.3416 76.6266 61.5354 77.1464C60.57 77.7724 59.5781 78.3399 58.5543 78.8597C57.6844 79.3053 56.8039 79.7297 55.8915 80.0797C54.9261 80.451 53.4728 81.0876 52.4278 80.7269C51.0487 80.2548 52.7779 78.149 53.2447 77.5708C53.7115 76.9926 54.2472 76.4091 54.7352 75.8204C55.4248 74.9876 56.1408 74.0964 57.1593 73.6615C57.6048 73.4705 57.2176 72.8234 56.7827 73.0143L56.788 73.0197Z" fill="#2B91AD"/>
<path d="M16.3379 115.323L43.3213 94.5059L40.0747 90.2977L13.0913 111.115L16.3379 115.323Z" fill="#0F5363"/>
<path d="M16.5498 115.156L12.8792 117.988C11.7159 118.886 10.0461 118.666 9.15186 117.507C8.25436 116.344 8.47352 114.674 9.63265 113.78L13.3032 110.948L16.5498 115.156Z" fill="#2B91AD"/>
<path d="M43.097 94.6765L51.5889 88.125L48.3423 83.9168L39.8504 90.4683L43.097 94.6765Z" fill="#2B91AD"/>
<path d="M51.5729 88.1372L51.6789 88.0523C51.8593 87.9091 52.0025 87.7181 52.0874 87.5059L53.9598 82.9336L49.0692 83.586C48.8305 83.6179 48.5971 83.7133 48.4062 83.8619L48.3213 83.9255L51.5676 88.1318L51.5729 88.1372Z" fill="#0F5363"/>
<path d="M12.6396 115.715L15.069 118.865C15.5836 119.528 16.5383 119.656 17.2014 119.141L33.5812 106.501" stroke="#2B91AD" stroke-width="0.408435" stroke-miterlimit="10"/>
</svg>
